<svg xmlns="http://www.w3.org/2000/svg" xmlns:xlink="http://www.w3.org/1999/xlink" width="520" height="268" viewBox="0 0 520 268" role="img" aria-labelledby="title desc">
  <title id="title">US and Hong Kong books, measured apart</title>
  <desc id="desc">Us Book +91.75%, +US$2,286 on US$2,491 (true_principal). Hk Book −40.48%, −HK$42,675 on HK$105,427 (net_principal). Each return is total P&amp;L (realized + unrealized) divided by the basis named beside it; the two bases differ and the currencies are not added. Daily total P&amp;L per book from 2026-06-03 to 2026-10-06. Source: dashboard.json on the data plane.</desc>
  <!-- Generated by site/tools/build_readme_book_charts.py from dashboard.json; edit the builder, not this file. -->
  <defs><linearGradient id="page" x1="0" y1="0" x2="1" y2="1"><stop offset="0" stop-color="#f7f9fc"/><stop offset=".6" stop-color="#eef2f7"/><stop offset="1" stop-color="#e6ecf3"/></linearGradient><radialGradient id="field-blue" cx="0" cy="0" r="322.4" gradientUnits="userSpaceOnUse"><stop offset="0" stop-color="#3f82b5" stop-opacity="0.3"/><stop offset="1" stop-color="#3f82b5" stop-opacity="0"/></radialGradient><radialGradient id="field-violet" cx="520" cy="0" r="322.4" gradientUnits="userSpaceOnUse"><stop offset="0" stop-color="#6f64a8" stop-opacity="0.22"/><stop offset="1" stop-color="#6f64a8" stop-opacity="0"/></radialGradient><radialGradient id="field-green" cx="478.4" cy="268" r="322.4" gradientUnits="userSpaceOnUse"><stop offset="0" stop-color="#13865f" stop-opacity="0.2"/><stop offset="1" stop-color="#13865f" stop-opacity="0"/></radialGradient><radialGradient id="field-warm" cx="0" cy="257.28" r="322.4" gradientUnits="userSpaceOnUse"><stop offset="0" stop-color="#b8524a" stop-opacity="0.16"/><stop offset="1" stop-color="#b8524a" stop-opacity="0"/></radialGradient><pattern id="grain" width="96" height="96" patternUnits="userSpaceOnUse"><circle cx="32.83" cy="80.8" r=".55" fill="#ffffff" fill-opacity=".5"/><circle cx="21.85" cy="39.82" r=".55" fill="#ffffff" fill-opacity=".5"/><circle cx="29.91" cy="81.24" r=".55" fill="#22303c" fill-opacity=".16"/><circle cx="44.21" cy="23.3" r=".55" fill="#ffffff" fill-opacity=".5"/><circle cx="94.19" cy="43.92" r=".55" fill="#22303c" fill-opacity=".16"/><circle cx="14.73" cy="39.42" r=".55" fill="#22303c" fill-opacity=".16"/><circle cx="32.39" cy="27.72" r=".55" fill="#22303c" fill-opacity=".16"/><circle cx="44.77" cy="39.54" r=".55" fill="#22303c" fill-opacity=".16"/><circle cx="55.71" cy="73.6" r=".55" fill="#ffffff" fill-opacity=".5"/><circle cx="80.57" cy="5.74" r=".55" fill="#ffffff" fill-opacity=".5"/><circle cx="74.55" cy="36.92" r=".55" fill="#ffffff" fill-opacity=".5"/><circle cx="58.13" cy="37.86" r=".55" fill="#22303c" fill-opacity=".16"/><circle cx="53.07" cy="25.2" r=".55" fill="#22303c" fill-opacity=".16"/><circle cx="27.37" cy="32.22" r=".55" fill="#22303c" fill-opacity=".16"/><circle cx="10.47" cy="49.96" r=".55" fill="#ffffff" fill-opacity=".5"/><circle cx="24.13" cy="1.62" r=".55" fill="#22303c" fill-opacity=".16"/><circle cx="58.11" cy="83.04" r=".55" fill="#22303c" fill-opacity=".16"/><circle cx="50.97" cy="20.3" r=".55" fill="#ffffff" fill-opacity=".5"/><circle cx="28.31" cy="15.64" r=".55" fill="#ffffff" fill-opacity=".5"/><circle cx="82.29" cy="57.54" r=".55" fill="#22303c" fill-opacity=".16"/><circle cx="8.11" cy="39.76" r=".55" fill="#ffffff" fill-opacity=".5"/><circle cx="50.25" cy="12.22" r=".55" fill="#ffffff" fill-opacity=".5"/><circle cx="3.91" cy="10.76" r=".55" fill="#ffffff" fill-opacity=".5"/><circle cx="68.77" cy="75.06" r=".55" fill="#22303c" fill-opacity=".16"/><circle cx="50.27" cy="16.96" r=".55" fill="#ffffff" fill-opacity=".5"/><circle cx="17.53" cy="86.06" r=".55" fill="#ffffff" fill-opacity=".5"/><circle cx="79.35" cy="51.96" r=".55" fill="#22303c" fill-opacity=".16"/><circle cx="85.97" cy="69.54" r=".55" fill="#22303c" fill-opacity=".16"/><circle cx="55.31" cy="95.28" r=".55" fill="#22303c" fill-opacity=".16"/><circle cx="20.65" cy="80.54" r=".55" fill="#ffffff" fill-opacity=".5"/><circle cx="52.39" cy="59.88" r=".55" fill="#22303c" fill-opacity=".16"/><circle cx="62.21" cy="8.98" r=".55" fill="#ffffff" fill-opacity=".5"/><circle cx="89.79" cy="63.52" r=".55" fill="#ffffff" fill-opacity=".5"/><circle cx="80.09" cy="32.78" r=".55" fill="#ffffff" fill-opacity=".5"/><circle cx="4.95" cy="15.32" r=".55" fill="#ffffff" fill-opacity=".5"/><circle cx="76.85" cy="75.14" r=".55" fill="#ffffff" fill-opacity=".5"/><circle cx="69.23" cy="44.56" r=".55" fill="#ffffff" fill-opacity=".5"/><circle cx="57.61" cy="83.58" r=".55" fill="#22303c" fill-opacity=".16"/><circle cx="16.39" cy="89.8" r=".55" fill="#ffffff" fill-opacity=".5"/><circle cx="92.77" cy="60.66" r=".55" fill="#22303c" fill-opacity=".16"/><circle cx="46.11" cy="12.8" r=".55" fill="#ffffff" fill-opacity=".5"/><circle cx="14.65" cy="25.58" r=".55" fill="#ffffff" fill-opacity=".5"/><circle cx="94.39" cy="8.12" r=".55" fill="#ffffff" fill-opacity=".5"/><circle cx="63.89" cy="15.46" r=".55" fill="#ffffff" fill-opacity=".5"/><circle cx="43.47" cy="38.64" r=".55" fill="#22303c" fill-opacity=".16"/><circle cx="95.85" cy="39.26" r=".55" fill="#ffffff" fill-opacity=".5"/></pattern><linearGradient id="glass" x1="0" y1="0" x2="0" y2="1"><stop offset="0" stop-color="#ffffff" stop-opacity=".74"/><stop offset="1" stop-color="#ffffff" stop-opacity=".48"/></linearGradient><linearGradient id="glass-blue" x1="0" y1="0" x2="0" y2="1"><stop offset="0" stop-color="#e8f1f8" stop-opacity=".88"/><stop offset="1" stop-color="#e8f1f8" stop-opacity=".60"/></linearGradient><linearGradient id="glass-green" x1="0" y1="0" x2="0" y2="1"><stop offset="0" stop-color="#e6f4ee" stop-opacity=".88"/><stop offset="1" stop-color="#e6f4ee" stop-opacity=".60"/></linearGradient><linearGradient id="glass-warm" x1="0" y1="0" x2="0" y2="1"><stop offset="0" stop-color="#fbecea" stop-opacity=".88"/><stop offset="1" stop-color="#fbecea" stop-opacity=".60"/></linearGradient><linearGradient id="glass-slate" x1="0" y1="0" x2="0" y2="1"><stop offset="0" stop-color="#eaeef2" stop-opacity=".88"/><stop offset="1" stop-color="#eaeef2" stop-opacity=".60"/></linearGradient><linearGradient id="glass-violet" x1="0" y1="0" x2="0" y2="1"><stop offset="0" stop-color="#efedf7" stop-opacity=".88"/><stop offset="1" stop-color="#efedf7" stop-opacity=".60"/></linearGradient><linearGradient id="sheen" x1="0" y1="0" x2="0" y2="1"><stop offset="0" stop-color="#ffffff" stop-opacity=".55"/><stop offset="1" stop-color="#ffffff" stop-opacity="0"/></linearGradient><linearGradient id="rim" x1="0" y1="0" x2="0" y2="1"><stop offset="0" stop-color="#ffffff" stop-opacity=".95"/><stop offset=".5" stop-color="#dfe7ef" stop-opacity=".9"/><stop offset="1" stop-color="#9fb0c0" stop-opacity=".75"/></linearGradient><linearGradient id="lift" x1="0" y1="0" x2="0" y2="1"><stop offset="0" stop-color="#1c2b3a" stop-opacity=".17"/><stop offset="1" stop-color="#1c2b3a" stop-opacity="0"/></linearGradient><linearGradient id="rule" x1="24" y1="0" x2="496" y2="0" gradientUnits="userSpaceOnUse"><stop offset=".5" stop-color="#dde4eb"/><stop offset="1" stop-color="#dde4eb" stop-opacity="0"/></linearGradient><radialGradient id="glow-blue"><stop offset=".4" stop-color="#3f82b5" stop-opacity=".36"/><stop offset=".72" stop-color="#3f82b5" stop-opacity=".14"/><stop offset="1" stop-color="#3f82b5" stop-opacity="0"/></radialGradient><radialGradient id="glow-green"><stop offset=".4" stop-color="#13865f" stop-opacity=".36"/><stop offset=".72" stop-color="#13865f" stop-opacity=".14"/><stop offset="1" stop-color="#13865f" stop-opacity="0"/></radialGradient><radialGradient id="glow-warm"><stop offset=".4" stop-color="#b8524a" stop-opacity=".36"/><stop offset=".72" stop-color="#b8524a" stop-opacity=".14"/><stop offset="1" stop-color="#b8524a" stop-opacity="0"/></radialGradient><radialGradient id="glow-slate"><stop offset=".4" stop-color="#5d7487" stop-opacity=".36"/><stop offset=".72" stop-color="#5d7487" stop-opacity=".14"/><stop offset="1" stop-color="#5d7487" stop-opacity="0"/></radialGradient><radialGradient id="glow-violet"><stop offset=".4" stop-color="#6f64a8" stop-opacity=".36"/><stop offset=".72" stop-color="#6f64a8" stop-opacity=".14"/><stop offset="1" stop-color="#6f64a8" stop-opacity="0"/></radialGradient><marker id="arr" markerWidth="10" markerHeight="10" refX="6" refY="5" orient="auto" markerUnits="userSpaceOnUse"><path d="M1 1.5L6.5 5L1 8.5" fill="none" stroke="#a9b6c2" stroke-width="1.6" stroke-linecap="round" stroke-linejoin="round"/></marker><style>text{font-family:-apple-system,BlinkMacSystemFont,"SF Pro Text","Segoe UI",Inter,Roboto,"Helvetica Neue",Arial,sans-serif}.kick{font-size:12.5px;font-weight:700}.title{font-size:25px;font-weight:750}.sub{font-size:15px;font-weight:450}.h{font-size:17.5px;font-weight:700}.b{font-size:15px;font-weight:450}.m{font-size:14.5px;font-weight:450}.code{font-size:13.5px;font-weight:500}.tag{font-size:11.5px;font-weight:700}.kick{letter-spacing:1.1px}.title{letter-spacing:-.5px}.h{letter-spacing:-.2px}.tag{letter-spacing:.9px}.code{font-family:ui-monospace,SFMono-Regular,Menlo,Consolas,"Liberation Mono",monospace}.breathe{animation:breathe 2.4s ease-in-out infinite}@keyframes breathe{50%{opacity:.35}}@media (prefers-reduced-motion:reduce){.pulse{display:none}.breathe,.sweep{animation:none}}</style></defs>
  <rect x=".5" y=".5" width="519" height="267" rx="22" fill="url(#page)"/>
  <rect x=".5" y=".5" width="519" height="267" rx="22" fill="url(#field-blue)"/>
  <rect x=".5" y=".5" width="519" height="267" rx="22" fill="url(#field-violet)"/>
  <rect x=".5" y=".5" width="519" height="267" rx="22" fill="url(#field-green)"/>
  <rect x=".5" y=".5" width="519" height="267" rx="22" fill="url(#field-warm)"/>
  <rect x=".5" y=".5" width="519" height="267" rx="22" fill="url(#grain)" stroke="#d5dde6"/>
  <path d="M34 215H244L252 231H26Z" fill="url(#lift)"/>
  <rect x="24" y="20" width="230" height="196" rx="14" fill="url(#glass)" stroke="url(#rim)" stroke-width="1.2"/>
  <rect class="sheen" x="25" y="21" width="228" height="64" rx="13" fill="url(#sheen)"/>
  <path d="M38 21.4H240" stroke="#ffffff" stroke-opacity=".95" stroke-linecap="round"/>
  <path d="M25.5 34V202" stroke="#3f82b5" stroke-width="4" stroke-linecap="round"/>
  <text x="42" y="48" class="kick"><tspan fill="#3f82b5">US BOOK · USD</tspan></text>
  <text x="41" y="88" class="title" style="font-size:38px" fill="#3f82b5">+91.75%</text>
  <text x="42" y="112" class="m"><tspan fill="#151a21">+US$2,286 on US$2,491</tspan></text>
  <text x="42" y="132" class="code"><tspan fill="#5b6875">÷ true_principal</tspan></text>
  <path d="M42.0 163.9 L43.6 162.6 L45.1 168.0 L49.8 166.5 L51.4 170.2 L53.0 167.5 L54.5 167.3 L56.1 166.9 L60.8 160.8 L62.4 163.4 L64.0 157.1 L65.5 162.5 L67.1 159.1 L71.8 166.3 L73.4 172.6 L74.9 176.0 L76.5 182.9 L78.1 180.2 L82.8 176.7 L84.3 170.0 L85.9 169.5 L87.5 169.6 L89.0 168.4 L93.7 168.2 L95.3 173.8 L96.9 177.7 L98.4 176.9 L100.0 179.5 L104.7 182.5 L106.3 180.5 L107.9 182.7 L109.4 184.7 L111.0 190.4 L115.7 190.1 L117.3 187.4 L118.8 190.3 L120.4 197.3 L122.0 196.8 L126.7 196.7 L128.2 195.5 L129.8 198.0 L131.4 194.3 L132.9 196.0 L137.6 193.8 L139.2 184.3 L140.8 185.3 L142.4 188.2 L143.9 173.8 L148.6 176.1 L150.2 174.7 L151.8 172.3 L153.3 171.4 L154.9 172.8 L159.6 165.5 L161.2 171.5 L162.7 173.4 L164.3 180.1 L165.9 176.2 L170.6 175.9 L172.1 175.0 L173.7 177.6 L175.3 174.1 L176.8 173.5 L181.6 172.4 L183.1 171.4 L184.7 174.6 L186.3 166.7 L187.8 167.6 L192.5 167.6 L194.1 163.6 L195.7 169.1 L197.2 166.3 L198.8 165.2 L203.5 166.0 L205.1 170.7 L206.6 165.6 L208.2 163.0 L209.8 164.0 L214.5 161.4 L216.0 162.4 L217.6 164.0 L219.2 168.3 L220.8 167.3 L225.5 168.5 L227.0 167.7 L228.6 166.3 L230.2 165.7 L231.7 159.0 L236.4 152.1 L238.0 148.0 L238.0 197.5 L42.0 197.5Z" fill="#3f82b5" fill-opacity=".13"/>
  <path d="M42 197.5H238" stroke="#a9b6c2" stroke-dasharray="2 4"/>
  <path class="curve" d="M42.0 163.9 L43.6 162.6 L45.1 168.0 L49.8 166.5 L51.4 170.2 L53.0 167.5 L54.5 167.3 L56.1 166.9 L60.8 160.8 L62.4 163.4 L64.0 157.1 L65.5 162.5 L67.1 159.1 L71.8 166.3 L73.4 172.6 L74.9 176.0 L76.5 182.9 L78.1 180.2 L82.8 176.7 L84.3 170.0 L85.9 169.5 L87.5 169.6 L89.0 168.4 L93.7 168.2 L95.3 173.8 L96.9 177.7 L98.4 176.9 L100.0 179.5 L104.7 182.5 L106.3 180.5 L107.9 182.7 L109.4 184.7 L111.0 190.4 L115.7 190.1 L117.3 187.4 L118.8 190.3 L120.4 197.3 L122.0 196.8 L126.7 196.7 L128.2 195.5 L129.8 198.0 L131.4 194.3 L132.9 196.0 L137.6 193.8 L139.2 184.3 L140.8 185.3 L142.4 188.2 L143.9 173.8 L148.6 176.1 L150.2 174.7 L151.8 172.3 L153.3 171.4 L154.9 172.8 L159.6 165.5 L161.2 171.5 L162.7 173.4 L164.3 180.1 L165.9 176.2 L170.6 175.9 L172.1 175.0 L173.7 177.6 L175.3 174.1 L176.8 173.5 L181.6 172.4 L183.1 171.4 L184.7 174.6 L186.3 166.7 L187.8 167.6 L192.5 167.6 L194.1 163.6 L195.7 169.1 L197.2 166.3 L198.8 165.2 L203.5 166.0 L205.1 170.7 L206.6 165.6 L208.2 163.0 L209.8 164.0 L214.5 161.4 L216.0 162.4 L217.6 164.0 L219.2 168.3 L220.8 167.3 L225.5 168.5 L227.0 167.7 L228.6 166.3 L230.2 165.7 L231.7 159.0 L236.4 152.1 L238.0 148.0" fill="none" stroke="#3f82b5" stroke-width="2" stroke-linejoin="round" stroke-linecap="round"/>
  <circle cx="238.0" cy="148.0" r="4.5" fill="#3f82b5" stroke="#ffffff" stroke-width="2"/>
  <path d="M276 215H486L494 231H268Z" fill="url(#lift)"/>
  <rect x="266" y="20" width="230" height="196" rx="14" fill="url(#glass)" stroke="url(#rim)" stroke-width="1.2"/>
  <rect class="sheen" x="267" y="21" width="228" height="64" rx="13" fill="url(#sheen)"/>
  <path d="M280 21.4H482" stroke="#ffffff" stroke-opacity=".95" stroke-linecap="round"/>
  <path d="M267.5 34V202" stroke="#b8524a" stroke-width="4" stroke-linecap="round"/>
  <text x="284" y="48" class="kick"><tspan fill="#b8524a">HK BOOK · HKD</tspan></text>
  <text x="283" y="88" class="title" style="font-size:38px" fill="#b8524a">−40.48%</text>
  <text x="284" y="112" class="m"><tspan fill="#151a21">−HK$42,675 on HK$105,427</tspan></text>
  <text x="284" y="132" class="code"><tspan fill="#5b6875">÷ net_principal</tspan></text>
  <path d="M284.0 152.6 L285.6 154.7 L287.1 163.2 L291.8 168.6 L293.4 171.5 L295.0 173.0 L296.5 175.2 L298.1 177.2 L302.8 174.3 L304.4 176.1 L306.0 173.9 L307.5 171.4 L309.1 171.4 L313.8 163.6 L315.4 172.2 L316.9 174.7 L318.5 177.1 L320.1 180.9 L324.8 179.1 L326.3 178.5 L327.9 178.6 L329.5 183.6 L331.0 182.9 L335.7 183.3 L337.3 185.0 L338.9 179.2 L340.4 185.7 L342.0 187.8 L346.7 193.9 L348.3 193.2 L349.9 187.5 L351.4 188.3 L353.0 195.8 L357.7 196.6 L359.3 192.5 L360.8 197.3 L362.4 196.3 L364.0 197.6 L368.7 192.8 L370.2 196.7 L371.8 192.9 L373.4 195.0 L374.9 191.1 L379.6 188.8 L381.2 190.5 L382.8 186.7 L384.4 182.1 L385.9 177.2 L390.6 177.2 L392.2 177.8 L393.8 174.4 L395.3 171.7 L396.9 179.3 L401.6 177.3 L403.2 180.0 L404.7 184.9 L406.3 181.8 L407.9 176.0 L412.6 182.8 L414.1 185.2 L415.7 184.0 L417.3 182.5 L418.8 184.8 L423.6 178.1 L425.1 180.6 L426.7 180.3 L428.3 179.2 L429.8 177.2 L434.5 179.1 L436.1 182.5 L437.7 184.3 L439.2 189.2 L440.8 192.3 L445.5 194.7 L447.1 197.4 L448.6 196.8 L450.2 194.3 L451.8 185.6 L456.5 186.2 L458.0 188.0 L459.6 190.5 L461.2 190.0 L462.8 191.2 L467.5 195.3 L469.0 197.2 L470.6 195.7 L472.2 195.7 L473.7 198.0 L478.4 197.5 L480.0 196.2 L480.0 148.0 L284.0 148.0Z" fill="#b8524a" fill-opacity=".13"/>
  <path d="M284 148.0H480" stroke="#a9b6c2" stroke-dasharray="2 4"/>
  <path class="curve" d="M284.0 152.6 L285.6 154.7 L287.1 163.2 L291.8 168.6 L293.4 171.5 L295.0 173.0 L296.5 175.2 L298.1 177.2 L302.8 174.3 L304.4 176.1 L306.0 173.9 L307.5 171.4 L309.1 171.4 L313.8 163.6 L315.4 172.2 L316.9 174.7 L318.5 177.1 L320.1 180.9 L324.8 179.1 L326.3 178.5 L327.9 178.6 L329.5 183.6 L331.0 182.9 L335.7 183.3 L337.3 185.0 L338.9 179.2 L340.4 185.7 L342.0 187.8 L346.7 193.9 L348.3 193.2 L349.9 187.5 L351.4 188.3 L353.0 195.8 L357.7 196.6 L359.3 192.5 L360.8 197.3 L362.4 196.3 L364.0 197.6 L368.7 192.8 L370.2 196.7 L371.8 192.9 L373.4 195.0 L374.9 191.1 L379.6 188.8 L381.2 190.5 L382.8 186.7 L384.4 182.1 L385.9 177.2 L390.6 177.2 L392.2 177.8 L393.8 174.4 L395.3 171.7 L396.9 179.3 L401.6 177.3 L403.2 180.0 L404.7 184.9 L406.3 181.8 L407.9 176.0 L412.6 182.8 L414.1 185.2 L415.7 184.0 L417.3 182.5 L418.8 184.8 L423.6 178.1 L425.1 180.6 L426.7 180.3 L428.3 179.2 L429.8 177.2 L434.5 179.1 L436.1 182.5 L437.7 184.3 L439.2 189.2 L440.8 192.3 L445.5 194.7 L447.1 197.4 L448.6 196.8 L450.2 194.3 L451.8 185.6 L456.5 186.2 L458.0 188.0 L459.6 190.5 L461.2 190.0 L462.8 191.2 L467.5 195.3 L469.0 197.2 L470.6 195.7 L472.2 195.7 L473.7 198.0 L478.4 197.5 L480.0 196.2" fill="none" stroke="#b8524a" stroke-width="2" stroke-linejoin="round" stroke-linecap="round"/>
  <circle cx="480.0" cy="196.2" r="4.5" fill="#b8524a" stroke="#ffffff" stroke-width="2"/>
  <text x="260" y="248" class="code" text-anchor="middle"><tspan fill="#5b6875">combined −19.79% in USD (mixed)  ·  Jun 3 – Oct 6, 2026</tspan></text>
</svg>
