<svg xmlns="http://www.w3.org/2000/svg" xmlns:xlink="http://www.w3.org/1999/xlink" width="1016" height="218" viewBox="0 0 1016 218" role="img" aria-labelledby="title desc">
  <title id="title">US and Hong Kong books, measured apart</title>
  <desc id="desc">Us Book +91.75%, +US$2,286 on US$2,491 (true_principal). Hk Book −40.48%, −HK$42,675 on HK$105,427 (net_principal). Combined −19.79% in USD (mixed). Each return is total P&amp;L (realized + unrealized) divided by the basis named under it; the bases differ and the currencies are not added. Daily total P&amp;L per book from 2026-06-03 to 2026-10-06. Source: dashboard.json on the data plane.</desc>
  <!-- Generated by site/tools/build_readme_book_charts.py from dashboard.json; edit the builder, not this file. -->
  <defs><linearGradient id="page" x1="0" y1="0" x2="1" y2="1"><stop offset="0" stop-color="#f7f9fc"/><stop offset=".6" stop-color="#eef2f7"/><stop offset="1" stop-color="#e6ecf3"/></linearGradient><radialGradient id="field-blue" cx="0" cy="0" r="629.92" gradientUnits="userSpaceOnUse"><stop offset="0" stop-color="#3f82b5" stop-opacity="0.3"/><stop offset="1" stop-color="#3f82b5" stop-opacity="0"/></radialGradient><radialGradient id="field-violet" cx="1016" cy="0" r="629.92" gradientUnits="userSpaceOnUse"><stop offset="0" stop-color="#6f64a8" stop-opacity="0.22"/><stop offset="1" stop-color="#6f64a8" stop-opacity="0"/></radialGradient><radialGradient id="field-green" cx="934.72" cy="218" r="629.92" gradientUnits="userSpaceOnUse"><stop offset="0" stop-color="#13865f" stop-opacity="0.2"/><stop offset="1" stop-color="#13865f" stop-opacity="0"/></radialGradient><radialGradient id="field-warm" cx="0" cy="209.28" r="629.92" gradientUnits="userSpaceOnUse"><stop offset="0" stop-color="#b8524a" stop-opacity="0.16"/><stop offset="1" stop-color="#b8524a" stop-opacity="0"/></radialGradient><pattern id="grain" width="96" height="96" patternUnits="userSpaceOnUse"><circle cx="32.83" cy="80.8" r=".55" fill="#ffffff" fill-opacity=".5"/><circle cx="21.85" cy="39.82" r=".55" fill="#ffffff" fill-opacity=".5"/><circle cx="29.91" cy="81.24" r=".55" fill="#22303c" fill-opacity=".16"/><circle cx="44.21" cy="23.3" r=".55" fill="#ffffff" fill-opacity=".5"/><circle cx="94.19" cy="43.92" r=".55" fill="#22303c" fill-opacity=".16"/><circle cx="14.73" cy="39.42" r=".55" fill="#22303c" fill-opacity=".16"/><circle cx="32.39" cy="27.72" r=".55" fill="#22303c" fill-opacity=".16"/><circle cx="44.77" cy="39.54" r=".55" fill="#22303c" fill-opacity=".16"/><circle cx="55.71" cy="73.6" r=".55" fill="#ffffff" fill-opacity=".5"/><circle cx="80.57" cy="5.74" r=".55" fill="#ffffff" fill-opacity=".5"/><circle cx="74.55" cy="36.92" r=".55" fill="#ffffff" fill-opacity=".5"/><circle cx="58.13" cy="37.86" r=".55" fill="#22303c" fill-opacity=".16"/><circle cx="53.07" cy="25.2" r=".55" fill="#22303c" fill-opacity=".16"/><circle cx="27.37" cy="32.22" r=".55" fill="#22303c" fill-opacity=".16"/><circle cx="10.47" cy="49.96" r=".55" fill="#ffffff" fill-opacity=".5"/><circle cx="24.13" cy="1.62" r=".55" fill="#22303c" fill-opacity=".16"/><circle cx="58.11" cy="83.04" r=".55" fill="#22303c" fill-opacity=".16"/><circle cx="50.97" cy="20.3" r=".55" fill="#ffffff" fill-opacity=".5"/><circle cx="28.31" cy="15.64" r=".55" fill="#ffffff" fill-opacity=".5"/><circle cx="82.29" cy="57.54" r=".55" fill="#22303c" fill-opacity=".16"/><circle cx="8.11" cy="39.76" r=".55" fill="#ffffff" fill-opacity=".5"/><circle cx="50.25" cy="12.22" r=".55" fill="#ffffff" fill-opacity=".5"/><circle cx="3.91" cy="10.76" r=".55" fill="#ffffff" fill-opacity=".5"/><circle cx="68.77" cy="75.06" r=".55" fill="#22303c" fill-opacity=".16"/><circle cx="50.27" cy="16.96" r=".55" fill="#ffffff" fill-opacity=".5"/><circle cx="17.53" cy="86.06" r=".55" fill="#ffffff" fill-opacity=".5"/><circle cx="79.35" cy="51.96" r=".55" fill="#22303c" fill-opacity=".16"/><circle cx="85.97" cy="69.54" r=".55" fill="#22303c" fill-opacity=".16"/><circle cx="55.31" cy="95.28" r=".55" fill="#22303c" fill-opacity=".16"/><circle cx="20.65" cy="80.54" r=".55" fill="#ffffff" fill-opacity=".5"/><circle cx="52.39" cy="59.88" r=".55" fill="#22303c" fill-opacity=".16"/><circle cx="62.21" cy="8.98" r=".55" fill="#ffffff" fill-opacity=".5"/><circle cx="89.79" cy="63.52" r=".55" fill="#ffffff" fill-opacity=".5"/><circle cx="80.09" cy="32.78" r=".55" fill="#ffffff" fill-opacity=".5"/><circle cx="4.95" cy="15.32" r=".55" fill="#ffffff" fill-opacity=".5"/><circle cx="76.85" cy="75.14" r=".55" fill="#ffffff" fill-opacity=".5"/><circle cx="69.23" cy="44.56" r=".55" fill="#ffffff" fill-opacity=".5"/><circle cx="57.61" cy="83.58" r=".55" fill="#22303c" fill-opacity=".16"/><circle cx="16.39" cy="89.8" r=".55" fill="#ffffff" fill-opacity=".5"/><circle cx="92.77" cy="60.66" r=".55" fill="#22303c" fill-opacity=".16"/><circle cx="46.11" cy="12.8" r=".55" fill="#ffffff" fill-opacity=".5"/><circle cx="14.65" cy="25.58" r=".55" fill="#ffffff" fill-opacity=".5"/><circle cx="94.39" cy="8.12" r=".55" fill="#ffffff" fill-opacity=".5"/><circle cx="63.89" cy="15.46" r=".55" fill="#ffffff" fill-opacity=".5"/><circle cx="43.47" cy="38.64" r=".55" fill="#22303c" fill-opacity=".16"/><circle cx="95.85" cy="39.26" r=".55" fill="#ffffff" fill-opacity=".5"/></pattern><linearGradient id="glass" x1="0" y1="0" x2="0" y2="1"><stop offset="0" stop-color="#ffffff" stop-opacity=".74"/><stop offset="1" stop-color="#ffffff" stop-opacity=".48"/></linearGradient><linearGradient id="glass-blue" x1="0" y1="0" x2="0" y2="1"><stop offset="0" stop-color="#e8f1f8" stop-opacity=".88"/><stop offset="1" stop-color="#e8f1f8" stop-opacity=".60"/></linearGradient><linearGradient id="glass-green" x1="0" y1="0" x2="0" y2="1"><stop offset="0" stop-color="#e6f4ee" stop-opacity=".88"/><stop offset="1" stop-color="#e6f4ee" stop-opacity=".60"/></linearGradient><linearGradient id="glass-warm" x1="0" y1="0" x2="0" y2="1"><stop offset="0" stop-color="#fbecea" stop-opacity=".88"/><stop offset="1" stop-color="#fbecea" stop-opacity=".60"/></linearGradient><linearGradient id="glass-slate" x1="0" y1="0" x2="0" y2="1"><stop offset="0" stop-color="#eaeef2" stop-opacity=".88"/><stop offset="1" stop-color="#eaeef2" stop-opacity=".60"/></linearGradient><linearGradient id="glass-violet" x1="0" y1="0" x2="0" y2="1"><stop offset="0" stop-color="#efedf7" stop-opacity=".88"/><stop offset="1" stop-color="#efedf7" stop-opacity=".60"/></linearGradient><linearGradient id="sheen" x1="0" y1="0" x2="0" y2="1"><stop offset="0" stop-color="#ffffff" stop-opacity=".55"/><stop offset="1" stop-color="#ffffff" stop-opacity="0"/></linearGradient><linearGradient id="rim" x1="0" y1="0" x2="0" y2="1"><stop offset="0" stop-color="#ffffff" stop-opacity=".95"/><stop offset=".5" stop-color="#dfe7ef" stop-opacity=".9"/><stop offset="1" stop-color="#9fb0c0" stop-opacity=".75"/></linearGradient><linearGradient id="lift" x1="0" y1="0" x2="0" y2="1"><stop offset="0" stop-color="#1c2b3a" stop-opacity=".17"/><stop offset="1" stop-color="#1c2b3a" stop-opacity="0"/></linearGradient><linearGradient id="rule" x1="24" y1="0" x2="992" y2="0" gradientUnits="userSpaceOnUse"><stop offset=".5" stop-color="#dde4eb"/><stop offset="1" stop-color="#dde4eb" stop-opacity="0"/></linearGradient><radialGradient id="glow-blue"><stop offset=".4" stop-color="#3f82b5" stop-opacity=".36"/><stop offset=".72" stop-color="#3f82b5" stop-opacity=".14"/><stop offset="1" stop-color="#3f82b5" stop-opacity="0"/></radialGradient><radialGradient id="glow-green"><stop offset=".4" stop-color="#13865f" stop-opacity=".36"/><stop offset=".72" stop-color="#13865f" stop-opacity=".14"/><stop offset="1" stop-color="#13865f" stop-opacity="0"/></radialGradient><radialGradient id="glow-warm"><stop offset=".4" stop-color="#b8524a" stop-opacity=".36"/><stop offset=".72" stop-color="#b8524a" stop-opacity=".14"/><stop offset="1" stop-color="#b8524a" stop-opacity="0"/></radialGradient><radialGradient id="glow-slate"><stop offset=".4" stop-color="#5d7487" stop-opacity=".36"/><stop offset=".72" stop-color="#5d7487" stop-opacity=".14"/><stop offset="1" stop-color="#5d7487" stop-opacity="0"/></radialGradient><radialGradient id="glow-violet"><stop offset=".4" stop-color="#6f64a8" stop-opacity=".36"/><stop offset=".72" stop-color="#6f64a8" stop-opacity=".14"/><stop offset="1" stop-color="#6f64a8" stop-opacity="0"/></radialGradient><marker id="arr" markerWidth="10" markerHeight="10" refX="6" refY="5" orient="auto" markerUnits="userSpaceOnUse"><path d="M1 1.5L6.5 5L1 8.5" fill="none" stroke="#a9b6c2" stroke-width="1.6" stroke-linecap="round" stroke-linejoin="round"/></marker><style>text{font-family:-apple-system,BlinkMacSystemFont,"SF Pro Text","Segoe UI",Inter,Roboto,"Helvetica Neue",Arial,sans-serif}.kick{font-size:12.5px;font-weight:700}.title{font-size:25px;font-weight:750}.sub{font-size:15px;font-weight:450}.h{font-size:17.5px;font-weight:700}.b{font-size:15px;font-weight:450}.m{font-size:14.5px;font-weight:450}.code{font-size:13.5px;font-weight:500}.tag{font-size:11.5px;font-weight:700}.kick{letter-spacing:1.1px}.title{letter-spacing:-.5px}.h{letter-spacing:-.2px}.tag{letter-spacing:.9px}.code{font-family:ui-monospace,SFMono-Regular,Menlo,Consolas,"Liberation Mono",monospace}.breathe{animation:breathe 2.4s ease-in-out infinite}@keyframes breathe{50%{opacity:.35}}@media (prefers-reduced-motion:reduce){.pulse{display:none}.breathe,.sweep{animation:none}}</style></defs>
  <rect x=".5" y=".5" width="1015" height="217" rx="22" fill="url(#page)"/>
  <rect x=".5" y=".5" width="1015" height="217" rx="22" fill="url(#field-blue)"/>
  <rect x=".5" y=".5" width="1015" height="217" rx="22" fill="url(#field-violet)"/>
  <rect x=".5" y=".5" width="1015" height="217" rx="22" fill="url(#field-green)"/>
  <rect x=".5" y=".5" width="1015" height="217" rx="22" fill="url(#field-warm)"/>
  <rect x=".5" y=".5" width="1015" height="217" rx="22" fill="url(#grain)" stroke="#d5dde6"/>
  <defs><linearGradient id="glint"><stop offset="0" stop-color="#ffffff" stop-opacity="0"/><stop offset=".5" stop-color="#ffffff" stop-opacity=".5"/><stop offset="1" stop-color="#ffffff" stop-opacity="0"/></linearGradient><clipPath id="pane-us"><rect x="24" y="24" width="472" height="138" rx="14"/></clipPath><clipPath id="pane-hk"><rect x="520" y="24" width="472" height="138" rx="14"/></clipPath></defs>
  <style>.glint{animation:glint 8s cubic-bezier(.4,0,.2,1) infinite}@keyframes glint{0%,53%{transform:translateX(0)}81%,100%{transform:translateX(622px)}}.drift{animation:drift 16s ease-in-out infinite alternate}@keyframes drift{to{transform:translate(75.52px,19.32px)}}.late{animation-delay:-4s}@media (prefers-reduced-motion:reduce){.glint,.drift{animation:none}}</style>
  <circle class="drift" cx="184.48" cy="109.56" r="150" fill="url(#glow-blue)" fill-opacity=".8"/>
  <circle class="drift late" cx="756" cy="109.56" r="150" fill="url(#glow-warm)" fill-opacity=".8"/>
  <path d="M34 161H486L494 177H26Z" fill="url(#lift)"/>
  <rect x="24" y="24" width="472" height="138" rx="14" fill="url(#glass)" stroke="url(#rim)" stroke-width="1.2"/>
  <rect class="sheen" x="25" y="25" width="470" height="64" rx="13" fill="url(#sheen)"/>
  <path d="M38 25.4H482" stroke="#ffffff" stroke-opacity=".95" stroke-linecap="round"/>
  <path d="M25.5 38V148" stroke="#3f82b5" stroke-width="4" stroke-linecap="round"/>
  <text x="52" y="61" class="kick"><tspan fill="#3f82b5">US BOOK</tspan></text>
  <text x="51" y="109" class="title" style="font-size:44px" fill="#3f82b5">+91.75%</text>
  <text x="52" y="135" class="code"><tspan fill="#5b6875">÷ true_principal</tspan></text>
  <defs><linearGradient id="area-us" x1="0" y1="52" x2="0" y2="134" gradientUnits="userSpaceOnUse"><stop offset="0" stop-color="#3f82b5" stop-opacity=".3"/><stop offset="0.991" stop-color="#3f82b5" stop-opacity=".03"/><stop offset="1" stop-color="#3f82b5" stop-opacity=".3"/></linearGradient></defs>
  <path d="M288.0 78.1 L289.5 75.9 L290.9 84.7 L295.3 82.3 L296.7 88.3 L298.2 84.0 L299.6 83.7 L301.1 82.9 L305.5 72.9 L306.9 77.2 L308.4 66.9 L309.8 75.8 L311.3 70.2 L315.7 81.9 L317.1 92.4 L318.6 98.0 L320.0 109.2 L321.5 104.8 L325.9 99.1 L327.3 88.2 L328.8 87.3 L330.2 87.4 L331.7 85.4 L336.0 85.2 L337.5 94.4 L339.0 100.8 L340.4 99.5 L341.9 103.6 L346.2 108.6 L347.7 105.3 L349.2 108.9 L350.6 112.2 L352.1 121.5 L356.4 121.1 L357.9 116.6 L359.3 121.4 L360.8 132.8 L362.3 132.1 L366.6 131.9 L368.1 129.8 L369.5 134.0 L371.0 127.9 L372.4 130.7 L376.8 127.0 L378.3 111.5 L379.7 113.2 L381.2 118.0 L382.6 94.3 L387.0 98.1 L388.5 95.8 L389.9 91.8 L391.4 90.4 L392.8 92.7 L397.2 80.7 L398.7 90.6 L400.1 93.7 L401.6 104.7 L403.0 98.2 L407.4 97.8 L408.8 96.3 L410.3 100.6 L411.8 94.8 L413.2 93.9 L417.6 92.0 L419.0 90.3 L420.5 95.6 L422.0 82.7 L423.4 84.1 L427.8 84.1 L429.2 77.6 L430.7 86.5 L432.1 81.9 L433.6 80.2 L438.0 81.5 L439.4 89.2 L440.9 80.9 L442.3 76.5 L443.8 78.3 L448.2 74.0 L449.6 75.6 L451.1 78.3 L452.5 85.4 L454.0 83.7 L458.4 85.6 L459.8 84.2 L461.3 82.0 L462.7 81.1 L464.2 70.1 L468.5 58.7 L470.0 52.0 L470.0 133.3 L288.0 133.3Z" fill="url(#area-us)"/>
  <path d="M288 133.3H470" stroke="#a9b6c2" stroke-dasharray="2 4"/>
  <path id="curve-us" class="curve" d="M288.0 78.1 L289.5 75.9 L290.9 84.7 L295.3 82.3 L296.7 88.3 L298.2 84.0 L299.6 83.7 L301.1 82.9 L305.5 72.9 L306.9 77.2 L308.4 66.9 L309.8 75.8 L311.3 70.2 L315.7 81.9 L317.1 92.4 L318.6 98.0 L320.0 109.2 L321.5 104.8 L325.9 99.1 L327.3 88.2 L328.8 87.3 L330.2 87.4 L331.7 85.4 L336.0 85.2 L337.5 94.4 L339.0 100.8 L340.4 99.5 L341.9 103.6 L346.2 108.6 L347.7 105.3 L349.2 108.9 L350.6 112.2 L352.1 121.5 L356.4 121.1 L357.9 116.6 L359.3 121.4 L360.8 132.8 L362.3 132.1 L366.6 131.9 L368.1 129.8 L369.5 134.0 L371.0 127.9 L372.4 130.7 L376.8 127.0 L378.3 111.5 L379.7 113.2 L381.2 118.0 L382.6 94.3 L387.0 98.1 L388.5 95.8 L389.9 91.8 L391.4 90.4 L392.8 92.7 L397.2 80.7 L398.7 90.6 L400.1 93.7 L401.6 104.7 L403.0 98.2 L407.4 97.8 L408.8 96.3 L410.3 100.6 L411.8 94.8 L413.2 93.9 L417.6 92.0 L419.0 90.3 L420.5 95.6 L422.0 82.7 L423.4 84.1 L427.8 84.1 L429.2 77.6 L430.7 86.5 L432.1 81.9 L433.6 80.2 L438.0 81.5 L439.4 89.2 L440.9 80.9 L442.3 76.5 L443.8 78.3 L448.2 74.0 L449.6 75.6 L451.1 78.3 L452.5 85.4 L454.0 83.7 L458.4 85.6 L459.8 84.2 L461.3 82.0 L462.7 81.1 L464.2 70.1 L468.5 58.7 L470.0 52.0" fill="none" stroke="#3f82b5" stroke-width="2" stroke-linejoin="round" stroke-linecap="round"/>
  <path class="pulse" d="M288.0 78.1 L289.5 75.9 L290.9 84.7 L295.3 82.3 L296.7 88.3 L298.2 84.0 L299.6 83.7 L301.1 82.9 L305.5 72.9 L306.9 77.2 L308.4 66.9 L309.8 75.8 L311.3 70.2 L315.7 81.9 L317.1 92.4 L318.6 98.0 L320.0 109.2 L321.5 104.8 L325.9 99.1 L327.3 88.2 L328.8 87.3 L330.2 87.4 L331.7 85.4 L336.0 85.2 L337.5 94.4 L339.0 100.8 L340.4 99.5 L341.9 103.6 L346.2 108.6 L347.7 105.3 L349.2 108.9 L350.6 112.2 L352.1 121.5 L356.4 121.1 L357.9 116.6 L359.3 121.4 L360.8 132.8 L362.3 132.1 L366.6 131.9 L368.1 129.8 L369.5 134.0 L371.0 127.9 L372.4 130.7 L376.8 127.0 L378.3 111.5 L379.7 113.2 L381.2 118.0 L382.6 94.3 L387.0 98.1 L388.5 95.8 L389.9 91.8 L391.4 90.4 L392.8 92.7 L397.2 80.7 L398.7 90.6 L400.1 93.7 L401.6 104.7 L403.0 98.2 L407.4 97.8 L408.8 96.3 L410.3 100.6 L411.8 94.8 L413.2 93.9 L417.6 92.0 L419.0 90.3 L420.5 95.6 L422.0 82.7 L423.4 84.1 L427.8 84.1 L429.2 77.6 L430.7 86.5 L432.1 81.9 L433.6 80.2 L438.0 81.5 L439.4 89.2 L440.9 80.9 L442.3 76.5 L443.8 78.3 L448.2 74.0 L449.6 75.6 L451.1 78.3 L452.5 85.4 L454.0 83.7 L458.4 85.6 L459.8 84.2 L461.3 82.0 L462.7 81.1 L464.2 70.1 L468.5 58.7 L470.0 52.0" pathLength="100" fill="none" stroke="#3f82b5" stroke-opacity=".3" stroke-width="7" stroke-linecap="round" stroke-linejoin="round" stroke-dasharray="16 200" stroke-dashoffset="16"><animate attributeName="stroke-dashoffset" values="16;-84;-100;-100" dur="8s" begin="0s" repeatCount="indefinite" calcMode="spline" keyTimes="0;0.45;0.52;1" keySplines=".45 0 .55 1;0 0 1 1;0 0 1 1"/></path>
  <circle class="pulse" r="9" fill="url(#glow-blue)"><animateMotion keyPoints="0;1;1;1" dur="8s" begin="0s" repeatCount="indefinite" calcMode="spline" keyTimes="0;0.45;0.52;1" keySplines=".45 0 .55 1;0 0 1 1;0 0 1 1"><mpath href="#curve-us" xlink:href="#curve-us"/></animateMotion></circle>
  <circle class="pulse" r="3.4" fill="#3f82b5"><animateMotion keyPoints="0;1;1;1" dur="8s" begin="0s" repeatCount="indefinite" calcMode="spline" keyTimes="0;0.45;0.52;1" keySplines=".45 0 .55 1;0 0 1 1;0 0 1 1"><mpath href="#curve-us" xlink:href="#curve-us"/></animateMotion></circle>
  <circle class="pulse" cx="470.0" cy="52.0" r="4.5" fill="none" stroke="#3f82b5" stroke-width="1.5" opacity="0"><animate attributeName="r" values="4.5;4.5;20;20" dur="8s" begin="0s" repeatCount="indefinite" keyTimes="0;0.42;0.75;1"/><animate attributeName="opacity" values="0;.75;0;0" dur="8s" begin="0s" repeatCount="indefinite" keyTimes="0;0.42;0.75;1"/></circle>
  <circle class="breathe" cx="470.0" cy="52.0" r="13" fill="url(#glow-blue)"/>
  <circle cx="470.0" cy="52.0" r="4.5" fill="#3f82b5" stroke="#ffffff" stroke-width="2"/>
  <g clip-path="url(#pane-us)"><path class="glint" d="M-32.04 24h64l-57.96 138h-64Z" fill="url(#glint)"/></g>
  <path d="M530 161H982L990 177H522Z" fill="url(#lift)"/>
  <rect x="520" y="24" width="472" height="138" rx="14" fill="url(#glass)" stroke="url(#rim)" stroke-width="1.2"/>
  <rect class="sheen" x="521" y="25" width="470" height="64" rx="13" fill="url(#sheen)"/>
  <path d="M534 25.4H978" stroke="#ffffff" stroke-opacity=".95" stroke-linecap="round"/>
  <path d="M521.5 38V148" stroke="#b8524a" stroke-width="4" stroke-linecap="round"/>
  <text x="548" y="61" class="kick"><tspan fill="#b8524a">HK BOOK</tspan></text>
  <text x="547" y="109" class="title" style="font-size:44px" fill="#b8524a">−40.48%</text>
  <text x="548" y="135" class="code"><tspan fill="#5b6875">÷ net_principal</tspan></text>
  <defs><linearGradient id="area-hk" x1="0" y1="52" x2="0" y2="134" gradientUnits="userSpaceOnUse"><stop offset="0" stop-color="#b8524a" stop-opacity=".3"/><stop offset="0.000" stop-color="#b8524a" stop-opacity=".03"/><stop offset="1" stop-color="#b8524a" stop-opacity=".3"/></linearGradient></defs>
  <path d="M784.0 59.6 L785.5 62.9 L786.9 76.9 L791.3 85.8 L792.7 90.6 L794.2 93.0 L795.6 96.7 L797.1 99.9 L801.5 95.1 L802.9 98.2 L804.4 94.5 L805.8 90.4 L807.3 90.4 L811.7 77.6 L813.1 91.7 L814.6 95.8 L816.0 99.8 L817.5 105.9 L821.9 103.0 L823.3 102.0 L824.8 102.1 L826.2 110.4 L827.7 109.2 L832.0 109.9 L833.5 112.7 L835.0 103.2 L836.4 113.8 L837.9 117.3 L842.2 127.3 L843.7 126.2 L845.2 116.8 L846.6 118.1 L848.1 130.4 L852.4 131.8 L853.9 124.9 L855.3 132.8 L856.8 131.3 L858.3 133.4 L862.6 125.5 L864.1 131.8 L865.5 125.6 L867.0 129.1 L868.4 122.6 L872.8 118.8 L874.3 121.7 L875.7 115.4 L877.2 107.8 L878.6 99.9 L883.0 99.9 L884.5 100.8 L885.9 95.3 L887.4 90.8 L888.8 103.3 L893.2 100.1 L894.7 104.5 L896.1 112.5 L897.6 107.4 L899.0 98.0 L903.4 109.1 L904.8 113.0 L906.3 111.1 L907.8 108.7 L909.2 112.3 L913.6 101.4 L915.0 105.5 L916.5 105.0 L918.0 103.1 L919.4 99.9 L923.8 103.0 L925.2 108.6 L926.7 111.5 L928.1 119.6 L929.6 124.7 L934.0 128.6 L935.4 133.1 L936.9 132.0 L938.3 127.9 L939.8 113.7 L944.2 114.7 L945.6 117.6 L947.1 121.7 L948.5 120.9 L950.0 122.9 L954.4 129.6 L955.8 132.7 L957.3 130.2 L958.7 130.2 L960.2 134.0 L964.5 133.1 L966.0 131.1 L966.0 52.0 L784.0 52.0Z" fill="url(#area-hk)"/>
  <path d="M784 52.0H966" stroke="#a9b6c2" stroke-dasharray="2 4"/>
  <path id="curve-hk" class="curve" d="M784.0 59.6 L785.5 62.9 L786.9 76.9 L791.3 85.8 L792.7 90.6 L794.2 93.0 L795.6 96.7 L797.1 99.9 L801.5 95.1 L802.9 98.2 L804.4 94.5 L805.8 90.4 L807.3 90.4 L811.7 77.6 L813.1 91.7 L814.6 95.8 L816.0 99.8 L817.5 105.9 L821.9 103.0 L823.3 102.0 L824.8 102.1 L826.2 110.4 L827.7 109.2 L832.0 109.9 L833.5 112.7 L835.0 103.2 L836.4 113.8 L837.9 117.3 L842.2 127.3 L843.7 126.2 L845.2 116.8 L846.6 118.1 L848.1 130.4 L852.4 131.8 L853.9 124.9 L855.3 132.8 L856.8 131.3 L858.3 133.4 L862.6 125.5 L864.1 131.8 L865.5 125.6 L867.0 129.1 L868.4 122.6 L872.8 118.8 L874.3 121.7 L875.7 115.4 L877.2 107.8 L878.6 99.9 L883.0 99.9 L884.5 100.8 L885.9 95.3 L887.4 90.8 L888.8 103.3 L893.2 100.1 L894.7 104.5 L896.1 112.5 L897.6 107.4 L899.0 98.0 L903.4 109.1 L904.8 113.0 L906.3 111.1 L907.8 108.7 L909.2 112.3 L913.6 101.4 L915.0 105.5 L916.5 105.0 L918.0 103.1 L919.4 99.9 L923.8 103.0 L925.2 108.6 L926.7 111.5 L928.1 119.6 L929.6 124.7 L934.0 128.6 L935.4 133.1 L936.9 132.0 L938.3 127.9 L939.8 113.7 L944.2 114.7 L945.6 117.6 L947.1 121.7 L948.5 120.9 L950.0 122.9 L954.4 129.6 L955.8 132.7 L957.3 130.2 L958.7 130.2 L960.2 134.0 L964.5 133.1 L966.0 131.1" fill="none" stroke="#b8524a" stroke-width="2" stroke-linejoin="round" stroke-linecap="round"/>
  <path class="pulse" d="M784.0 59.6 L785.5 62.9 L786.9 76.9 L791.3 85.8 L792.7 90.6 L794.2 93.0 L795.6 96.7 L797.1 99.9 L801.5 95.1 L802.9 98.2 L804.4 94.5 L805.8 90.4 L807.3 90.4 L811.7 77.6 L813.1 91.7 L814.6 95.8 L816.0 99.8 L817.5 105.9 L821.9 103.0 L823.3 102.0 L824.8 102.1 L826.2 110.4 L827.7 109.2 L832.0 109.9 L833.5 112.7 L835.0 103.2 L836.4 113.8 L837.9 117.3 L842.2 127.3 L843.7 126.2 L845.2 116.8 L846.6 118.1 L848.1 130.4 L852.4 131.8 L853.9 124.9 L855.3 132.8 L856.8 131.3 L858.3 133.4 L862.6 125.5 L864.1 131.8 L865.5 125.6 L867.0 129.1 L868.4 122.6 L872.8 118.8 L874.3 121.7 L875.7 115.4 L877.2 107.8 L878.6 99.9 L883.0 99.9 L884.5 100.8 L885.9 95.3 L887.4 90.8 L888.8 103.3 L893.2 100.1 L894.7 104.5 L896.1 112.5 L897.6 107.4 L899.0 98.0 L903.4 109.1 L904.8 113.0 L906.3 111.1 L907.8 108.7 L909.2 112.3 L913.6 101.4 L915.0 105.5 L916.5 105.0 L918.0 103.1 L919.4 99.9 L923.8 103.0 L925.2 108.6 L926.7 111.5 L928.1 119.6 L929.6 124.7 L934.0 128.6 L935.4 133.1 L936.9 132.0 L938.3 127.9 L939.8 113.7 L944.2 114.7 L945.6 117.6 L947.1 121.7 L948.5 120.9 L950.0 122.9 L954.4 129.6 L955.8 132.7 L957.3 130.2 L958.7 130.2 L960.2 134.0 L964.5 133.1 L966.0 131.1" pathLength="100" fill="none" stroke="#b8524a" stroke-opacity=".3" stroke-width="7" stroke-linecap="round" stroke-linejoin="round" stroke-dasharray="16 200" stroke-dashoffset="16"><animate attributeName="stroke-dashoffset" values="16;-84;-100;-100" dur="8s" begin="-4s" repeatCount="indefinite" calcMode="spline" keyTimes="0;0.45;0.52;1" keySplines=".45 0 .55 1;0 0 1 1;0 0 1 1"/></path>
  <circle class="pulse" r="9" fill="url(#glow-warm)"><animateMotion keyPoints="0;1;1;1" dur="8s" begin="-4s" repeatCount="indefinite" calcMode="spline" keyTimes="0;0.45;0.52;1" keySplines=".45 0 .55 1;0 0 1 1;0 0 1 1"><mpath href="#curve-hk" xlink:href="#curve-hk"/></animateMotion></circle>
  <circle class="pulse" r="3.4" fill="#b8524a"><animateMotion keyPoints="0;1;1;1" dur="8s" begin="-4s" repeatCount="indefinite" calcMode="spline" keyTimes="0;0.45;0.52;1" keySplines=".45 0 .55 1;0 0 1 1;0 0 1 1"><mpath href="#curve-hk" xlink:href="#curve-hk"/></animateMotion></circle>
  <circle class="pulse" cx="966.0" cy="131.1" r="4.5" fill="none" stroke="#b8524a" stroke-width="1.5" opacity="0"><animate attributeName="r" values="4.5;4.5;20;20" dur="8s" begin="-4s" repeatCount="indefinite" keyTimes="0;0.42;0.75;1"/><animate attributeName="opacity" values="0;.75;0;0" dur="8s" begin="-4s" repeatCount="indefinite" keyTimes="0;0.42;0.75;1"/></circle>
  <circle class="breathe" cx="966.0" cy="131.1" r="13" fill="url(#glow-warm)"/>
  <circle cx="966.0" cy="131.1" r="4.5" fill="#b8524a" stroke="#ffffff" stroke-width="2"/>
  <g clip-path="url(#pane-hk)"><path class="glint late" d="M463.96 24h64l-57.96 138h-64Z" fill="url(#glint)"/></g>
  <text x="30" y="197" class="m" fill="#5b6875">combined −19.79%<tspan class="code" dx="9">÷ mixed</tspan></text>
  <text x="986" y="197" class="m" text-anchor="end"><tspan fill="#8794a1">Jun 3 – Oct 6, 2026</tspan></text>
</svg>
