<svg xmlns="http://www.w3.org/2000/svg" xmlns:xlink="http://www.w3.org/1999/xlink" width="520" height="252" viewBox="0 0 520 252" role="img" aria-labelledby="title desc">
  <title id="title">US and Hong Kong books, measured apart</title>
  <desc id="desc">Us Book +91.75%, +US$2,286 on US$2,491 (true_principal). Hk Book −40.48%, −HK$42,675 on HK$105,427 (net_principal). Combined −19.79% in USD (mixed). Each return is total P&amp;L (realized + unrealized) divided by the basis named under it; the bases differ and the currencies are not added. Daily total P&amp;L per book from 2026-06-03 to 2026-10-06. Source: dashboard.json on the data plane.</desc>
  <!-- Generated by site/tools/build_readme_book_charts.py from dashboard.json; edit the builder, not this file. -->
  <defs><linearGradient id="page" x1="0" y1="0" x2="1" y2="1"><stop offset="0" stop-color="#f7f9fc"/><stop offset=".6" stop-color="#eef2f7"/><stop offset="1" stop-color="#e6ecf3"/></linearGradient><radialGradient id="field-blue" cx="0" cy="0" r="322.4" gradientUnits="userSpaceOnUse"><stop offset="0" stop-color="#3f82b5" stop-opacity="0.3"/><stop offset="1" stop-color="#3f82b5" stop-opacity="0"/></radialGradient><radialGradient id="field-violet" cx="520" cy="0" r="322.4" gradientUnits="userSpaceOnUse"><stop offset="0" stop-color="#6f64a8" stop-opacity="0.22"/><stop offset="1" stop-color="#6f64a8" stop-opacity="0"/></radialGradient><radialGradient id="field-green" cx="478.4" cy="252" r="322.4" gradientUnits="userSpaceOnUse"><stop offset="0" stop-color="#13865f" stop-opacity="0.2"/><stop offset="1" stop-color="#13865f" stop-opacity="0"/></radialGradient><radialGradient id="field-warm" cx="0" cy="241.92" r="322.4" gradientUnits="userSpaceOnUse"><stop offset="0" stop-color="#b8524a" stop-opacity="0.16"/><stop offset="1" stop-color="#b8524a" stop-opacity="0"/></radialGradient><pattern id="grain" width="96" height="96" patternUnits="userSpaceOnUse"><circle cx="32.83" cy="80.8" r=".55" fill="#ffffff" fill-opacity=".5"/><circle cx="21.85" cy="39.82" r=".55" fill="#ffffff" fill-opacity=".5"/><circle cx="29.91" cy="81.24" r=".55" fill="#22303c" fill-opacity=".16"/><circle cx="44.21" cy="23.3" r=".55" fill="#ffffff" fill-opacity=".5"/><circle cx="94.19" cy="43.92" r=".55" fill="#22303c" fill-opacity=".16"/><circle cx="14.73" cy="39.42" r=".55" fill="#22303c" fill-opacity=".16"/><circle cx="32.39" cy="27.72" r=".55" fill="#22303c" fill-opacity=".16"/><circle cx="44.77" cy="39.54" r=".55" fill="#22303c" fill-opacity=".16"/><circle cx="55.71" cy="73.6" r=".55" fill="#ffffff" fill-opacity=".5"/><circle cx="80.57" cy="5.74" r=".55" fill="#ffffff" fill-opacity=".5"/><circle cx="74.55" cy="36.92" r=".55" fill="#ffffff" fill-opacity=".5"/><circle cx="58.13" cy="37.86" r=".55" fill="#22303c" fill-opacity=".16"/><circle cx="53.07" cy="25.2" r=".55" fill="#22303c" fill-opacity=".16"/><circle cx="27.37" cy="32.22" r=".55" fill="#22303c" fill-opacity=".16"/><circle cx="10.47" cy="49.96" r=".55" fill="#ffffff" fill-opacity=".5"/><circle cx="24.13" cy="1.62" r=".55" fill="#22303c" fill-opacity=".16"/><circle cx="58.11" cy="83.04" r=".55" fill="#22303c" fill-opacity=".16"/><circle cx="50.97" cy="20.3" r=".55" fill="#ffffff" fill-opacity=".5"/><circle cx="28.31" cy="15.64" r=".55" fill="#ffffff" fill-opacity=".5"/><circle cx="82.29" cy="57.54" r=".55" fill="#22303c" fill-opacity=".16"/><circle cx="8.11" cy="39.76" r=".55" fill="#ffffff" fill-opacity=".5"/><circle cx="50.25" cy="12.22" r=".55" fill="#ffffff" fill-opacity=".5"/><circle cx="3.91" cy="10.76" r=".55" fill="#ffffff" fill-opacity=".5"/><circle cx="68.77" cy="75.06" r=".55" fill="#22303c" fill-opacity=".16"/><circle cx="50.27" cy="16.96" r=".55" fill="#ffffff" fill-opacity=".5"/><circle cx="17.53" cy="86.06" r=".55" fill="#ffffff" fill-opacity=".5"/><circle cx="79.35" cy="51.96" r=".55" fill="#22303c" fill-opacity=".16"/><circle cx="85.97" cy="69.54" r=".55" fill="#22303c" fill-opacity=".16"/><circle cx="55.31" cy="95.28" r=".55" fill="#22303c" fill-opacity=".16"/><circle cx="20.65" cy="80.54" r=".55" fill="#ffffff" fill-opacity=".5"/><circle cx="52.39" cy="59.88" r=".55" fill="#22303c" fill-opacity=".16"/><circle cx="62.21" cy="8.98" r=".55" fill="#ffffff" fill-opacity=".5"/><circle cx="89.79" cy="63.52" r=".55" fill="#ffffff" fill-opacity=".5"/><circle cx="80.09" cy="32.78" r=".55" fill="#ffffff" fill-opacity=".5"/><circle cx="4.95" cy="15.32" r=".55" fill="#ffffff" fill-opacity=".5"/><circle cx="76.85" cy="75.14" r=".55" fill="#ffffff" fill-opacity=".5"/><circle cx="69.23" cy="44.56" r=".55" fill="#ffffff" fill-opacity=".5"/><circle cx="57.61" cy="83.58" r=".55" fill="#22303c" fill-opacity=".16"/><circle cx="16.39" cy="89.8" r=".55" fill="#ffffff" fill-opacity=".5"/><circle cx="92.77" cy="60.66" r=".55" fill="#22303c" fill-opacity=".16"/><circle cx="46.11" cy="12.8" r=".55" fill="#ffffff" fill-opacity=".5"/><circle cx="14.65" cy="25.58" r=".55" fill="#ffffff" fill-opacity=".5"/><circle cx="94.39" cy="8.12" r=".55" fill="#ffffff" fill-opacity=".5"/><circle cx="63.89" cy="15.46" r=".55" fill="#ffffff" fill-opacity=".5"/><circle cx="43.47" cy="38.64" r=".55" fill="#22303c" fill-opacity=".16"/><circle cx="95.85" cy="39.26" r=".55" fill="#ffffff" fill-opacity=".5"/></pattern><linearGradient id="glass" x1="0" y1="0" x2="0" y2="1"><stop offset="0" stop-color="#ffffff" stop-opacity=".74"/><stop offset="1" stop-color="#ffffff" stop-opacity=".48"/></linearGradient><linearGradient id="glass-blue" x1="0" y1="0" x2="0" y2="1"><stop offset="0" stop-color="#e8f1f8" stop-opacity=".88"/><stop offset="1" stop-color="#e8f1f8" stop-opacity=".60"/></linearGradient><linearGradient id="glass-green" x1="0" y1="0" x2="0" y2="1"><stop offset="0" stop-color="#e6f4ee" stop-opacity=".88"/><stop offset="1" stop-color="#e6f4ee" stop-opacity=".60"/></linearGradient><linearGradient id="glass-warm" x1="0" y1="0" x2="0" y2="1"><stop offset="0" stop-color="#fbecea" stop-opacity=".88"/><stop offset="1" stop-color="#fbecea" stop-opacity=".60"/></linearGradient><linearGradient id="glass-slate" x1="0" y1="0" x2="0" y2="1"><stop offset="0" stop-color="#eaeef2" stop-opacity=".88"/><stop offset="1" stop-color="#eaeef2" stop-opacity=".60"/></linearGradient><linearGradient id="glass-violet" x1="0" y1="0" x2="0" y2="1"><stop offset="0" stop-color="#efedf7" stop-opacity=".88"/><stop offset="1" stop-color="#efedf7" stop-opacity=".60"/></linearGradient><linearGradient id="sheen" x1="0" y1="0" x2="0" y2="1"><stop offset="0" stop-color="#ffffff" stop-opacity=".55"/><stop offset="1" stop-color="#ffffff" stop-opacity="0"/></linearGradient><linearGradient id="rim" x1="0" y1="0" x2="0" y2="1"><stop offset="0" stop-color="#ffffff" stop-opacity=".95"/><stop offset=".5" stop-color="#dfe7ef" stop-opacity=".9"/><stop offset="1" stop-color="#9fb0c0" stop-opacity=".75"/></linearGradient><linearGradient id="lift" x1="0" y1="0" x2="0" y2="1"><stop offset="0" stop-color="#1c2b3a" stop-opacity=".17"/><stop offset="1" stop-color="#1c2b3a" stop-opacity="0"/></linearGradient><linearGradient id="rule" x1="24" y1="0" x2="496" y2="0" gradientUnits="userSpaceOnUse"><stop offset=".5" stop-color="#dde4eb"/><stop offset="1" stop-color="#dde4eb" stop-opacity="0"/></linearGradient><radialGradient id="glow-blue"><stop offset=".4" stop-color="#3f82b5" stop-opacity=".36"/><stop offset=".72" stop-color="#3f82b5" stop-opacity=".14"/><stop offset="1" stop-color="#3f82b5" stop-opacity="0"/></radialGradient><radialGradient id="glow-green"><stop offset=".4" stop-color="#13865f" stop-opacity=".36"/><stop offset=".72" stop-color="#13865f" stop-opacity=".14"/><stop offset="1" stop-color="#13865f" stop-opacity="0"/></radialGradient><radialGradient id="glow-warm"><stop offset=".4" stop-color="#b8524a" stop-opacity=".36"/><stop offset=".72" stop-color="#b8524a" stop-opacity=".14"/><stop offset="1" stop-color="#b8524a" stop-opacity="0"/></radialGradient><radialGradient id="glow-slate"><stop offset=".4" stop-color="#5d7487" stop-opacity=".36"/><stop offset=".72" stop-color="#5d7487" stop-opacity=".14"/><stop offset="1" stop-color="#5d7487" stop-opacity="0"/></radialGradient><radialGradient id="glow-violet"><stop offset=".4" stop-color="#6f64a8" stop-opacity=".36"/><stop offset=".72" stop-color="#6f64a8" stop-opacity=".14"/><stop offset="1" stop-color="#6f64a8" stop-opacity="0"/></radialGradient><marker id="arr" markerWidth="10" markerHeight="10" refX="6" refY="5" orient="auto" markerUnits="userSpaceOnUse"><path d="M1 1.5L6.5 5L1 8.5" fill="none" stroke="#a9b6c2" stroke-width="1.6" stroke-linecap="round" stroke-linejoin="round"/></marker><style>text{font-family:-apple-system,BlinkMacSystemFont,"SF Pro Text","Segoe UI",Inter,Roboto,"Helvetica Neue",Arial,sans-serif}.kick{font-size:12.5px;font-weight:700}.title{font-size:25px;font-weight:750}.sub{font-size:15px;font-weight:450}.h{font-size:17.5px;font-weight:700}.b{font-size:15px;font-weight:450}.m{font-size:14.5px;font-weight:450}.code{font-size:13.5px;font-weight:500}.tag{font-size:11.5px;font-weight:700}.kick{letter-spacing:1.1px}.title{letter-spacing:-.5px}.h{letter-spacing:-.2px}.tag{letter-spacing:.9px}.code{font-family:ui-monospace,SFMono-Regular,Menlo,Consolas,"Liberation Mono",monospace}.breathe{animation:breathe 2.4s ease-in-out infinite}@keyframes breathe{50%{opacity:.35}}@media (prefers-reduced-motion:reduce){.pulse{display:none}.breathe,.sweep{animation:none}}</style></defs>
  <rect x=".5" y=".5" width="519" height="251" rx="22" fill="url(#page)"/>
  <rect x=".5" y=".5" width="519" height="251" rx="22" fill="url(#field-blue)"/>
  <rect x=".5" y=".5" width="519" height="251" rx="22" fill="url(#field-violet)"/>
  <rect x=".5" y=".5" width="519" height="251" rx="22" fill="url(#field-green)"/>
  <rect x=".5" y=".5" width="519" height="251" rx="22" fill="url(#field-warm)"/>
  <rect x=".5" y=".5" width="519" height="251" rx="22" fill="url(#grain)" stroke="#d5dde6"/>
  <defs><linearGradient id="glint"><stop offset="0" stop-color="#ffffff" stop-opacity="0"/><stop offset=".5" stop-color="#ffffff" stop-opacity=".5"/><stop offset="1" stop-color="#ffffff" stop-opacity="0"/></linearGradient><clipPath id="pane-us"><rect x="24" y="20" width="230" height="176" rx="14"/></clipPath><clipPath id="pane-hk"><rect x="266" y="20" width="230" height="176" rx="14"/></clipPath></defs>
  <style>.glint{animation:glint 8s cubic-bezier(.4,0,.2,1) infinite}@keyframes glint{0%,53%{transform:translateX(0)}81%,100%{transform:translateX(380px)}}.drift{animation:drift 16s ease-in-out infinite alternate}@keyframes drift{to{transform:translate(36.8px,24.64px)}}.late{animation-delay:-4s}@media (prefers-reduced-motion:reduce){.glint,.drift{animation:none}}</style>
  <circle class="drift" cx="102.2" cy="129.12" r="110.4" fill="url(#glow-blue)" fill-opacity=".8"/>
  <circle class="drift late" cx="381" cy="129.12" r="110.4" fill="url(#glow-warm)" fill-opacity=".8"/>
  <path d="M34 195H244L252 211H26Z" fill="url(#lift)"/>
  <rect x="24" y="20" width="230" height="176" rx="14" fill="url(#glass)" stroke="url(#rim)" stroke-width="1.2"/>
  <rect class="sheen" x="25" y="21" width="228" height="64" rx="13" fill="url(#sheen)"/>
  <path d="M38 21.4H240" stroke="#ffffff" stroke-opacity=".95" stroke-linecap="round"/>
  <path d="M25.5 34V182" stroke="#3f82b5" stroke-width="4" stroke-linecap="round"/>
  <text x="42" y="50" class="kick"><tspan fill="#3f82b5">US BOOK</tspan></text>
  <text x="41" y="90" class="title" style="font-size:38px" fill="#3f82b5">+91.75%</text>
  <text x="42" y="114" class="code"><tspan fill="#5b6875">÷ true_principal</tspan></text>
  <defs><linearGradient id="area-us" x1="0" y1="134" x2="0" y2="176" gradientUnits="userSpaceOnUse"><stop offset="0" stop-color="#3f82b5" stop-opacity=".3"/><stop offset="0.991" stop-color="#3f82b5" stop-opacity=".03"/><stop offset="1" stop-color="#3f82b5" stop-opacity=".3"/></linearGradient></defs>
  <path d="M42.0 147.4 L43.6 146.2 L45.1 150.8 L49.8 149.5 L51.3 152.6 L52.9 150.4 L54.4 150.2 L56.0 149.8 L60.6 144.7 L62.2 146.9 L63.7 141.7 L65.3 146.2 L66.8 143.3 L71.5 149.3 L73.0 154.7 L74.6 157.5 L76.1 163.3 L77.7 161.1 L82.4 158.1 L83.9 152.5 L85.5 152.1 L87.0 152.1 L88.6 151.1 L93.2 151.0 L94.8 155.7 L96.3 159.0 L97.9 158.3 L99.4 160.4 L104.1 163.0 L105.6 161.3 L107.2 163.2 L108.7 164.8 L110.3 169.6 L114.9 169.4 L116.5 167.1 L118.0 169.5 L119.6 175.4 L121.2 175.0 L125.8 174.9 L127.4 173.9 L128.9 176.0 L130.5 172.9 L132.0 174.3 L136.7 172.4 L138.2 164.5 L139.8 165.3 L141.3 167.8 L142.9 155.7 L147.5 157.6 L149.1 156.4 L150.6 154.4 L152.2 153.6 L153.7 154.9 L158.4 148.7 L160.0 153.8 L161.5 155.3 L163.1 161.0 L164.6 157.7 L169.3 157.5 L170.8 156.7 L172.4 158.9 L173.9 155.9 L175.5 155.4 L180.1 154.5 L181.7 153.6 L183.2 156.4 L184.8 149.7 L186.3 150.4 L191.0 150.4 L192.5 147.1 L194.1 151.7 L195.6 149.3 L197.2 148.4 L201.9 149.1 L203.4 153.0 L205.0 148.8 L206.5 146.6 L208.1 147.5 L212.7 145.3 L214.3 146.1 L215.8 147.5 L217.4 151.1 L218.9 150.2 L223.6 151.2 L225.1 150.5 L226.7 149.4 L228.2 148.9 L229.8 143.3 L234.4 137.4 L236.0 134.0 L236.0 175.6 L42.0 175.6Z" fill="url(#area-us)"/>
  <path d="M42 175.6H236" stroke="#a9b6c2" stroke-dasharray="2 4"/>
  <path id="curve-us" class="curve" d="M42.0 147.4 L43.6 146.2 L45.1 150.8 L49.8 149.5 L51.3 152.6 L52.9 150.4 L54.4 150.2 L56.0 149.8 L60.6 144.7 L62.2 146.9 L63.7 141.7 L65.3 146.2 L66.8 143.3 L71.5 149.3 L73.0 154.7 L74.6 157.5 L76.1 163.3 L77.7 161.1 L82.4 158.1 L83.9 152.5 L85.5 152.1 L87.0 152.1 L88.6 151.1 L93.2 151.0 L94.8 155.7 L96.3 159.0 L97.9 158.3 L99.4 160.4 L104.1 163.0 L105.6 161.3 L107.2 163.2 L108.7 164.8 L110.3 169.6 L114.9 169.4 L116.5 167.1 L118.0 169.5 L119.6 175.4 L121.2 175.0 L125.8 174.9 L127.4 173.9 L128.9 176.0 L130.5 172.9 L132.0 174.3 L136.7 172.4 L138.2 164.5 L139.8 165.3 L141.3 167.8 L142.9 155.7 L147.5 157.6 L149.1 156.4 L150.6 154.4 L152.2 153.6 L153.7 154.9 L158.4 148.7 L160.0 153.8 L161.5 155.3 L163.1 161.0 L164.6 157.7 L169.3 157.5 L170.8 156.7 L172.4 158.9 L173.9 155.9 L175.5 155.4 L180.1 154.5 L181.7 153.6 L183.2 156.4 L184.8 149.7 L186.3 150.4 L191.0 150.4 L192.5 147.1 L194.1 151.7 L195.6 149.3 L197.2 148.4 L201.9 149.1 L203.4 153.0 L205.0 148.8 L206.5 146.6 L208.1 147.5 L212.7 145.3 L214.3 146.1 L215.8 147.5 L217.4 151.1 L218.9 150.2 L223.6 151.2 L225.1 150.5 L226.7 149.4 L228.2 148.9 L229.8 143.3 L234.4 137.4 L236.0 134.0" fill="none" stroke="#3f82b5" stroke-width="2" stroke-linejoin="round" stroke-linecap="round"/>
  <path class="pulse" d="M42.0 147.4 L43.6 146.2 L45.1 150.8 L49.8 149.5 L51.3 152.6 L52.9 150.4 L54.4 150.2 L56.0 149.8 L60.6 144.7 L62.2 146.9 L63.7 141.7 L65.3 146.2 L66.8 143.3 L71.5 149.3 L73.0 154.7 L74.6 157.5 L76.1 163.3 L77.7 161.1 L82.4 158.1 L83.9 152.5 L85.5 152.1 L87.0 152.1 L88.6 151.1 L93.2 151.0 L94.8 155.7 L96.3 159.0 L97.9 158.3 L99.4 160.4 L104.1 163.0 L105.6 161.3 L107.2 163.2 L108.7 164.8 L110.3 169.6 L114.9 169.4 L116.5 167.1 L118.0 169.5 L119.6 175.4 L121.2 175.0 L125.8 174.9 L127.4 173.9 L128.9 176.0 L130.5 172.9 L132.0 174.3 L136.7 172.4 L138.2 164.5 L139.8 165.3 L141.3 167.8 L142.9 155.7 L147.5 157.6 L149.1 156.4 L150.6 154.4 L152.2 153.6 L153.7 154.9 L158.4 148.7 L160.0 153.8 L161.5 155.3 L163.1 161.0 L164.6 157.7 L169.3 157.5 L170.8 156.7 L172.4 158.9 L173.9 155.9 L175.5 155.4 L180.1 154.5 L181.7 153.6 L183.2 156.4 L184.8 149.7 L186.3 150.4 L191.0 150.4 L192.5 147.1 L194.1 151.7 L195.6 149.3 L197.2 148.4 L201.9 149.1 L203.4 153.0 L205.0 148.8 L206.5 146.6 L208.1 147.5 L212.7 145.3 L214.3 146.1 L215.8 147.5 L217.4 151.1 L218.9 150.2 L223.6 151.2 L225.1 150.5 L226.7 149.4 L228.2 148.9 L229.8 143.3 L234.4 137.4 L236.0 134.0" pathLength="100" fill="none" stroke="#3f82b5" stroke-opacity=".3" stroke-width="7" stroke-linecap="round" stroke-linejoin="round" stroke-dasharray="16 200" stroke-dashoffset="16"><animate attributeName="stroke-dashoffset" values="16;-84;-100;-100" dur="8s" begin="0s" repeatCount="indefinite" calcMode="spline" keyTimes="0;0.45;0.52;1" keySplines=".45 0 .55 1;0 0 1 1;0 0 1 1"/></path>
  <circle class="pulse" r="9" fill="url(#glow-blue)"><animateMotion keyPoints="0;1;1;1" dur="8s" begin="0s" repeatCount="indefinite" calcMode="spline" keyTimes="0;0.45;0.52;1" keySplines=".45 0 .55 1;0 0 1 1;0 0 1 1"><mpath href="#curve-us" xlink:href="#curve-us"/></animateMotion></circle>
  <circle class="pulse" r="3.4" fill="#3f82b5"><animateMotion keyPoints="0;1;1;1" dur="8s" begin="0s" repeatCount="indefinite" calcMode="spline" keyTimes="0;0.45;0.52;1" keySplines=".45 0 .55 1;0 0 1 1;0 0 1 1"><mpath href="#curve-us" xlink:href="#curve-us"/></animateMotion></circle>
  <circle class="pulse" cx="236.0" cy="134.0" r="4.5" fill="none" stroke="#3f82b5" stroke-width="1.5" opacity="0"><animate attributeName="r" values="4.5;4.5;20;20" dur="8s" begin="0s" repeatCount="indefinite" keyTimes="0;0.42;0.75;1"/><animate attributeName="opacity" values="0;.75;0;0" dur="8s" begin="0s" repeatCount="indefinite" keyTimes="0;0.42;0.75;1"/></circle>
  <circle class="breathe" cx="236.0" cy="134.0" r="13" fill="url(#glow-blue)"/>
  <circle cx="236.0" cy="134.0" r="4.5" fill="#3f82b5" stroke="#ffffff" stroke-width="2"/>
  <g clip-path="url(#pane-us)"><path class="glint" d="M-16.08 20h64l-73.92 176h-64Z" fill="url(#glint)"/></g>
  <path d="M276 195H486L494 211H268Z" fill="url(#lift)"/>
  <rect x="266" y="20" width="230" height="176" rx="14" fill="url(#glass)" stroke="url(#rim)" stroke-width="1.2"/>
  <rect class="sheen" x="267" y="21" width="228" height="64" rx="13" fill="url(#sheen)"/>
  <path d="M280 21.4H482" stroke="#ffffff" stroke-opacity=".95" stroke-linecap="round"/>
  <path d="M267.5 34V182" stroke="#b8524a" stroke-width="4" stroke-linecap="round"/>
  <text x="284" y="50" class="kick"><tspan fill="#b8524a">HK BOOK</tspan></text>
  <text x="283" y="90" class="title" style="font-size:38px" fill="#b8524a">−40.48%</text>
  <text x="284" y="114" class="code"><tspan fill="#5b6875">÷ net_principal</tspan></text>
  <defs><linearGradient id="area-hk" x1="0" y1="134" x2="0" y2="176" gradientUnits="userSpaceOnUse"><stop offset="0" stop-color="#b8524a" stop-opacity=".3"/><stop offset="0.000" stop-color="#b8524a" stop-opacity=".03"/><stop offset="1" stop-color="#b8524a" stop-opacity=".3"/></linearGradient></defs>
  <path d="M284.0 137.9 L285.6 139.6 L287.1 146.7 L291.8 151.3 L293.3 153.8 L294.9 155.0 L296.4 156.9 L298.0 158.5 L302.6 156.1 L304.2 157.6 L305.7 155.7 L307.3 153.7 L308.8 153.7 L313.5 147.1 L315.0 154.3 L316.6 156.5 L318.1 158.5 L319.7 161.6 L324.4 160.1 L325.9 159.6 L327.5 159.7 L329.0 163.9 L330.6 163.3 L335.2 163.7 L336.8 165.1 L338.3 160.2 L339.9 165.7 L341.4 167.4 L346.1 172.6 L347.6 172.0 L349.2 167.2 L350.7 167.9 L352.3 174.2 L356.9 174.9 L358.5 171.4 L360.0 175.4 L361.6 174.6 L363.2 175.7 L367.8 171.6 L369.4 174.9 L370.9 171.7 L372.5 173.5 L374.0 170.2 L378.7 168.2 L380.2 169.7 L381.8 166.5 L383.3 162.6 L384.9 158.6 L389.5 158.5 L391.1 159.0 L392.6 156.2 L394.2 153.9 L395.7 160.3 L400.4 158.6 L402.0 160.9 L403.5 165.0 L405.1 162.4 L406.6 157.5 L411.3 163.3 L412.8 165.2 L414.4 164.3 L415.9 163.0 L417.5 164.9 L422.1 159.3 L423.7 161.4 L425.2 161.2 L426.8 160.2 L428.3 158.6 L433.0 160.1 L434.5 163.0 L436.1 164.5 L437.6 168.6 L439.2 171.2 L443.9 173.2 L445.4 175.5 L447.0 175.0 L448.5 172.9 L450.1 165.6 L454.7 166.1 L456.3 167.6 L457.8 169.7 L459.4 169.3 L460.9 170.3 L465.6 173.7 L467.1 175.3 L468.7 174.1 L470.2 174.1 L471.8 176.0 L476.4 175.6 L478.0 174.5 L478.0 134.0 L284.0 134.0Z" fill="url(#area-hk)"/>
  <path d="M284 134.0H478" stroke="#a9b6c2" stroke-dasharray="2 4"/>
  <path id="curve-hk" class="curve" d="M284.0 137.9 L285.6 139.6 L287.1 146.7 L291.8 151.3 L293.3 153.8 L294.9 155.0 L296.4 156.9 L298.0 158.5 L302.6 156.1 L304.2 157.6 L305.7 155.7 L307.3 153.7 L308.8 153.7 L313.5 147.1 L315.0 154.3 L316.6 156.5 L318.1 158.5 L319.7 161.6 L324.4 160.1 L325.9 159.6 L327.5 159.7 L329.0 163.9 L330.6 163.3 L335.2 163.7 L336.8 165.1 L338.3 160.2 L339.9 165.7 L341.4 167.4 L346.1 172.6 L347.6 172.0 L349.2 167.2 L350.7 167.9 L352.3 174.2 L356.9 174.9 L358.5 171.4 L360.0 175.4 L361.6 174.6 L363.2 175.7 L367.8 171.6 L369.4 174.9 L370.9 171.7 L372.5 173.5 L374.0 170.2 L378.7 168.2 L380.2 169.7 L381.8 166.5 L383.3 162.6 L384.9 158.6 L389.5 158.5 L391.1 159.0 L392.6 156.2 L394.2 153.9 L395.7 160.3 L400.4 158.6 L402.0 160.9 L403.5 165.0 L405.1 162.4 L406.6 157.5 L411.3 163.3 L412.8 165.2 L414.4 164.3 L415.9 163.0 L417.5 164.9 L422.1 159.3 L423.7 161.4 L425.2 161.2 L426.8 160.2 L428.3 158.6 L433.0 160.1 L434.5 163.0 L436.1 164.5 L437.6 168.6 L439.2 171.2 L443.9 173.2 L445.4 175.5 L447.0 175.0 L448.5 172.9 L450.1 165.6 L454.7 166.1 L456.3 167.6 L457.8 169.7 L459.4 169.3 L460.9 170.3 L465.6 173.7 L467.1 175.3 L468.7 174.1 L470.2 174.1 L471.8 176.0 L476.4 175.6 L478.0 174.5" fill="none" stroke="#b8524a" stroke-width="2" stroke-linejoin="round" stroke-linecap="round"/>
  <path class="pulse" d="M284.0 137.9 L285.6 139.6 L287.1 146.7 L291.8 151.3 L293.3 153.8 L294.9 155.0 L296.4 156.9 L298.0 158.5 L302.6 156.1 L304.2 157.6 L305.7 155.7 L307.3 153.7 L308.8 153.7 L313.5 147.1 L315.0 154.3 L316.6 156.5 L318.1 158.5 L319.7 161.6 L324.4 160.1 L325.9 159.6 L327.5 159.7 L329.0 163.9 L330.6 163.3 L335.2 163.7 L336.8 165.1 L338.3 160.2 L339.9 165.7 L341.4 167.4 L346.1 172.6 L347.6 172.0 L349.2 167.2 L350.7 167.9 L352.3 174.2 L356.9 174.9 L358.5 171.4 L360.0 175.4 L361.6 174.6 L363.2 175.7 L367.8 171.6 L369.4 174.9 L370.9 171.7 L372.5 173.5 L374.0 170.2 L378.7 168.2 L380.2 169.7 L381.8 166.5 L383.3 162.6 L384.9 158.6 L389.5 158.5 L391.1 159.0 L392.6 156.2 L394.2 153.9 L395.7 160.3 L400.4 158.6 L402.0 160.9 L403.5 165.0 L405.1 162.4 L406.6 157.5 L411.3 163.3 L412.8 165.2 L414.4 164.3 L415.9 163.0 L417.5 164.9 L422.1 159.3 L423.7 161.4 L425.2 161.2 L426.8 160.2 L428.3 158.6 L433.0 160.1 L434.5 163.0 L436.1 164.5 L437.6 168.6 L439.2 171.2 L443.9 173.2 L445.4 175.5 L447.0 175.0 L448.5 172.9 L450.1 165.6 L454.7 166.1 L456.3 167.6 L457.8 169.7 L459.4 169.3 L460.9 170.3 L465.6 173.7 L467.1 175.3 L468.7 174.1 L470.2 174.1 L471.8 176.0 L476.4 175.6 L478.0 174.5" pathLength="100" fill="none" stroke="#b8524a" stroke-opacity=".3" stroke-width="7" stroke-linecap="round" stroke-linejoin="round" stroke-dasharray="16 200" stroke-dashoffset="16"><animate attributeName="stroke-dashoffset" values="16;-84;-100;-100" dur="8s" begin="-4s" repeatCount="indefinite" calcMode="spline" keyTimes="0;0.45;0.52;1" keySplines=".45 0 .55 1;0 0 1 1;0 0 1 1"/></path>
  <circle class="pulse" r="9" fill="url(#glow-warm)"><animateMotion keyPoints="0;1;1;1" dur="8s" begin="-4s" repeatCount="indefinite" calcMode="spline" keyTimes="0;0.45;0.52;1" keySplines=".45 0 .55 1;0 0 1 1;0 0 1 1"><mpath href="#curve-hk" xlink:href="#curve-hk"/></animateMotion></circle>
  <circle class="pulse" r="3.4" fill="#b8524a"><animateMotion keyPoints="0;1;1;1" dur="8s" begin="-4s" repeatCount="indefinite" calcMode="spline" keyTimes="0;0.45;0.52;1" keySplines=".45 0 .55 1;0 0 1 1;0 0 1 1"><mpath href="#curve-hk" xlink:href="#curve-hk"/></animateMotion></circle>
  <circle class="pulse" cx="478.0" cy="174.5" r="4.5" fill="none" stroke="#b8524a" stroke-width="1.5" opacity="0"><animate attributeName="r" values="4.5;4.5;20;20" dur="8s" begin="-4s" repeatCount="indefinite" keyTimes="0;0.42;0.75;1"/><animate attributeName="opacity" values="0;.75;0;0" dur="8s" begin="-4s" repeatCount="indefinite" keyTimes="0;0.42;0.75;1"/></circle>
  <circle class="breathe" cx="478.0" cy="174.5" r="13" fill="url(#glow-warm)"/>
  <circle cx="478.0" cy="174.5" r="4.5" fill="#b8524a" stroke="#ffffff" stroke-width="2"/>
  <g clip-path="url(#pane-hk)"><path class="glint late" d="M225.92 20h64l-73.92 176h-64Z" fill="url(#glint)"/></g>
  <text x="30" y="231" class="m" fill="#5b6875">combined −19.79%<tspan class="code" dx="9">÷ mixed</tspan></text>
  <text x="490" y="231" class="m" text-anchor="end"><tspan fill="#8794a1">Jun 3 – Oct 6, 2026</tspan></text>
</svg>
