<svg xmlns="http://www.w3.org/2000/svg" xmlns:xlink="http://www.w3.org/1999/xlink" width="520" height="2080" viewBox="0 0 520 2080" role="img" aria-labelledby="title desc">
  <title id="title">clawock data flow — sources, fetch fallback, portfolio and risk, three cadences, agent, postflight, data plane and delivery</title>
  <desc id="desc">Eight information layers feed ordered fetch-fallback routes (HK quotes Tencent plus Eastmoney HK, then stooq, then yfinance; US quotes Nasdaq, Eastmoney, Finnhub, Yahoo, yfinance, Alpha Vantage, Polygon; USDHKD Frankfurter, exchangerate.host, Yahoo; every live Eastmoney call through one throttled gateway; an empty fetch keeps the prior value). Python reconciles the book, runs the integrity gate and builds risk. The pre-open brief, session reports and intraday check-ins each run a preflight that assembles only the blocks that run can use; the agent reads those files and never fetches; a Python postflight validates and publishes to master, to the data-plane branch the dashboard polls, and to WeChat and Telegram. An LLM-free crontab watchdog checks every slot and mirrors to Telegram when the send is not confirmed.</desc>
  <!-- Generated by site/tools/build_readme_diagrams.py; edit the builder, not this file. -->
  <defs><linearGradient id="page" x1="0" y1="0" x2="1" y2="1"><stop offset="0" stop-color="#f7f9fc"/><stop offset=".6" stop-color="#eef2f7"/><stop offset="1" stop-color="#e6ecf3"/></linearGradient><radialGradient id="field-blue" cx="0" cy="0" r="322.4" gradientUnits="userSpaceOnUse"><stop offset="0" stop-color="#3f82b5" stop-opacity="0.3"/><stop offset="1" stop-color="#3f82b5" stop-opacity="0"/></radialGradient><radialGradient id="field-violet" cx="520" cy="0" r="322.4" gradientUnits="userSpaceOnUse"><stop offset="0" stop-color="#6f64a8" stop-opacity="0.22"/><stop offset="1" stop-color="#6f64a8" stop-opacity="0"/></radialGradient><radialGradient id="field-green" cx="478.4" cy="2080" r="322.4" gradientUnits="userSpaceOnUse"><stop offset="0" stop-color="#13865f" stop-opacity="0.2"/><stop offset="1" stop-color="#13865f" stop-opacity="0"/></radialGradient><radialGradient id="field-warm" cx="0" cy="1996.8" r="322.4" gradientUnits="userSpaceOnUse"><stop offset="0" stop-color="#b8524a" stop-opacity="0.16"/><stop offset="1" stop-color="#b8524a" stop-opacity="0"/></radialGradient><pattern id="grain" width="96" height="96" patternUnits="userSpaceOnUse"><circle cx="32.83" cy="80.8" r=".55" fill="#ffffff" fill-opacity=".5"/><circle cx="21.85" cy="39.82" r=".55" fill="#ffffff" fill-opacity=".5"/><circle cx="29.91" cy="81.24" r=".55" fill="#22303c" fill-opacity=".16"/><circle cx="44.21" cy="23.3" r=".55" fill="#ffffff" fill-opacity=".5"/><circle cx="94.19" cy="43.92" r=".55" fill="#22303c" fill-opacity=".16"/><circle cx="14.73" cy="39.42" r=".55" fill="#22303c" fill-opacity=".16"/><circle cx="32.39" cy="27.72" r=".55" fill="#22303c" fill-opacity=".16"/><circle cx="44.77" cy="39.54" r=".55" fill="#22303c" fill-opacity=".16"/><circle cx="55.71" cy="73.6" r=".55" fill="#ffffff" fill-opacity=".5"/><circle cx="80.57" cy="5.74" r=".55" fill="#ffffff" fill-opacity=".5"/><circle cx="74.55" cy="36.92" r=".55" fill="#ffffff" fill-opacity=".5"/><circle cx="58.13" cy="37.86" r=".55" fill="#22303c" fill-opacity=".16"/><circle cx="53.07" cy="25.2" r=".55" fill="#22303c" fill-opacity=".16"/><circle cx="27.37" cy="32.22" r=".55" fill="#22303c" fill-opacity=".16"/><circle cx="10.47" cy="49.96" r=".55" fill="#ffffff" fill-opacity=".5"/><circle cx="24.13" cy="1.62" r=".55" fill="#22303c" fill-opacity=".16"/><circle cx="58.11" cy="83.04" r=".55" fill="#22303c" fill-opacity=".16"/><circle cx="50.97" cy="20.3" r=".55" fill="#ffffff" fill-opacity=".5"/><circle cx="28.31" cy="15.64" r=".55" fill="#ffffff" fill-opacity=".5"/><circle cx="82.29" cy="57.54" r=".55" fill="#22303c" fill-opacity=".16"/><circle cx="8.11" cy="39.76" r=".55" fill="#ffffff" fill-opacity=".5"/><circle cx="50.25" cy="12.22" r=".55" fill="#ffffff" fill-opacity=".5"/><circle cx="3.91" cy="10.76" r=".55" fill="#ffffff" fill-opacity=".5"/><circle cx="68.77" cy="75.06" r=".55" fill="#22303c" fill-opacity=".16"/><circle cx="50.27" cy="16.96" r=".55" fill="#ffffff" fill-opacity=".5"/><circle cx="17.53" cy="86.06" r=".55" fill="#ffffff" fill-opacity=".5"/><circle cx="79.35" cy="51.96" r=".55" fill="#22303c" fill-opacity=".16"/><circle cx="85.97" cy="69.54" r=".55" fill="#22303c" fill-opacity=".16"/><circle cx="55.31" cy="95.28" r=".55" fill="#22303c" fill-opacity=".16"/><circle cx="20.65" cy="80.54" r=".55" fill="#ffffff" fill-opacity=".5"/><circle cx="52.39" cy="59.88" r=".55" fill="#22303c" fill-opacity=".16"/><circle cx="62.21" cy="8.98" r=".55" fill="#ffffff" fill-opacity=".5"/><circle cx="89.79" cy="63.52" r=".55" fill="#ffffff" fill-opacity=".5"/><circle cx="80.09" cy="32.78" r=".55" fill="#ffffff" fill-opacity=".5"/><circle cx="4.95" cy="15.32" r=".55" fill="#ffffff" fill-opacity=".5"/><circle cx="76.85" cy="75.14" r=".55" fill="#ffffff" fill-opacity=".5"/><circle cx="69.23" cy="44.56" r=".55" fill="#ffffff" fill-opacity=".5"/><circle cx="57.61" cy="83.58" r=".55" fill="#22303c" fill-opacity=".16"/><circle cx="16.39" cy="89.8" r=".55" fill="#ffffff" fill-opacity=".5"/><circle cx="92.77" cy="60.66" r=".55" fill="#22303c" fill-opacity=".16"/><circle cx="46.11" cy="12.8" r=".55" fill="#ffffff" fill-opacity=".5"/><circle cx="14.65" cy="25.58" r=".55" fill="#ffffff" fill-opacity=".5"/><circle cx="94.39" cy="8.12" r=".55" fill="#ffffff" fill-opacity=".5"/><circle cx="63.89" cy="15.46" r=".55" fill="#ffffff" fill-opacity=".5"/><circle cx="43.47" cy="38.64" r=".55" fill="#22303c" fill-opacity=".16"/><circle cx="95.85" cy="39.26" r=".55" fill="#ffffff" fill-opacity=".5"/></pattern><linearGradient id="glass" x1="0" y1="0" x2="0" y2="1"><stop offset="0" stop-color="#ffffff" stop-opacity=".74"/><stop offset="1" stop-color="#ffffff" stop-opacity=".48"/></linearGradient><linearGradient id="glass-blue" x1="0" y1="0" x2="0" y2="1"><stop offset="0" stop-color="#e8f1f8" stop-opacity=".88"/><stop offset="1" stop-color="#e8f1f8" stop-opacity=".60"/></linearGradient><linearGradient id="glass-green" x1="0" y1="0" x2="0" y2="1"><stop offset="0" stop-color="#e6f4ee" stop-opacity=".88"/><stop offset="1" stop-color="#e6f4ee" stop-opacity=".60"/></linearGradient><linearGradient id="glass-warm" x1="0" y1="0" x2="0" y2="1"><stop offset="0" stop-color="#fbecea" stop-opacity=".88"/><stop offset="1" stop-color="#fbecea" stop-opacity=".60"/></linearGradient><linearGradient id="glass-slate" x1="0" y1="0" x2="0" y2="1"><stop offset="0" stop-color="#eaeef2" stop-opacity=".88"/><stop offset="1" stop-color="#eaeef2" stop-opacity=".60"/></linearGradient><linearGradient id="glass-violet" x1="0" y1="0" x2="0" y2="1"><stop offset="0" stop-color="#efedf7" stop-opacity=".88"/><stop offset="1" stop-color="#efedf7" stop-opacity=".60"/></linearGradient><linearGradient id="sheen" x1="0" y1="0" x2="0" y2="1"><stop offset="0" stop-color="#ffffff" stop-opacity=".55"/><stop offset="1" stop-color="#ffffff" stop-opacity="0"/></linearGradient><linearGradient id="rim" x1="0" y1="0" x2="0" y2="1"><stop offset="0" stop-color="#ffffff" stop-opacity=".95"/><stop offset=".5" stop-color="#dfe7ef" stop-opacity=".9"/><stop offset="1" stop-color="#9fb0c0" stop-opacity=".75"/></linearGradient><linearGradient id="lift" x1="0" y1="0" x2="0" y2="1"><stop offset="0" stop-color="#1c2b3a" stop-opacity=".17"/><stop offset="1" stop-color="#1c2b3a" stop-opacity="0"/></linearGradient><linearGradient id="rule" x1="24" y1="0" x2="496" y2="0" gradientUnits="userSpaceOnUse"><stop offset=".5" stop-color="#dde4eb"/><stop offset="1" stop-color="#dde4eb" stop-opacity="0"/></linearGradient><radialGradient id="glow-blue"><stop offset=".4" stop-color="#3f82b5" stop-opacity=".36"/><stop offset=".72" stop-color="#3f82b5" stop-opacity=".14"/><stop offset="1" stop-color="#3f82b5" stop-opacity="0"/></radialGradient><radialGradient id="glow-green"><stop offset=".4" stop-color="#13865f" stop-opacity=".36"/><stop offset=".72" stop-color="#13865f" stop-opacity=".14"/><stop offset="1" stop-color="#13865f" stop-opacity="0"/></radialGradient><radialGradient id="glow-warm"><stop offset=".4" stop-color="#b8524a" stop-opacity=".36"/><stop offset=".72" stop-color="#b8524a" stop-opacity=".14"/><stop offset="1" stop-color="#b8524a" stop-opacity="0"/></radialGradient><radialGradient id="glow-slate"><stop offset=".4" stop-color="#5d7487" stop-opacity=".36"/><stop offset=".72" stop-color="#5d7487" stop-opacity=".14"/><stop offset="1" stop-color="#5d7487" stop-opacity="0"/></radialGradient><radialGradient id="glow-violet"><stop offset=".4" stop-color="#6f64a8" stop-opacity=".36"/><stop offset=".72" stop-color="#6f64a8" stop-opacity=".14"/><stop offset="1" stop-color="#6f64a8" stop-opacity="0"/></radialGradient><marker id="arr" markerWidth="10" markerHeight="10" refX="6" refY="5" orient="auto" markerUnits="userSpaceOnUse"><path d="M1 1.5L6.5 5L1 8.5" fill="none" stroke="#a9b6c2" stroke-width="1.6" stroke-linecap="round" stroke-linejoin="round"/></marker><style>text{font-family:-apple-system,BlinkMacSystemFont,"SF Pro Text","Segoe UI",Inter,Roboto,"Helvetica Neue",Arial,sans-serif}.kick{font-size:12.5px;font-weight:700}.title{font-size:25px;font-weight:750}.sub{font-size:15px;font-weight:450}.h{font-size:17.5px;font-weight:700}.b{font-size:15px;font-weight:450}.m{font-size:14.5px;font-weight:450}.code{font-size:13.5px;font-weight:500}.tag{font-size:11.5px;font-weight:700}.kick{letter-spacing:1.1px}.title{letter-spacing:-.5px}.h{letter-spacing:-.2px}.tag{letter-spacing:.9px}.code{font-family:ui-monospace,SFMono-Regular,Menlo,Consolas,"Liberation Mono",monospace}.breathe{animation:breathe 2.4s ease-in-out infinite}@keyframes breathe{50%{opacity:.35}}@media (prefers-reduced-motion:reduce){.pulse{display:none}.breathe,.sweep{animation:none}}</style></defs>
  <rect x=".5" y=".5" width="519" height="2079" rx="22" fill="url(#page)"/>
  <rect x=".5" y=".5" width="519" height="2079" rx="22" fill="url(#field-blue)"/>
  <rect x=".5" y=".5" width="519" height="2079" rx="22" fill="url(#field-violet)"/>
  <rect x=".5" y=".5" width="519" height="2079" rx="22" fill="url(#field-green)"/>
  <rect x=".5" y=".5" width="519" height="2079" rx="22" fill="url(#field-warm)"/>
  <rect x=".5" y=".5" width="519" height="2079" rx="22" fill="url(#grain)" stroke="#d5dde6"/>
  <text x="24" y="46" class="kick"><tspan fill="#3f82b5">DATA FLOW · HK + US</tspan></text>
  <text x="24" y="80" class="title"><tspan fill="#151a21">From eight source layers</tspan></text>
  <text x="24" y="114" class="title"><tspan fill="#151a21">to a delivered card</tspan></text>
  <text x="24" y="150" class="sub"><tspan fill="#5b6875">Python fetches, computes and settles; the model</tspan></text>
  <text x="24" y="171" class="sub"><tspan fill="#5b6875">only reads the files a run assembles.</tspan></text>
  <circle cx="29" cy="197.5" r="4.5" fill="#3f82b5"/>
  <text x="39" y="202" class="m"><tspan fill="#5b6875">source · fetch</tspan></text>
  <circle cx="172.59" cy="197.5" r="4.5" fill="#13865f"/>
  <text x="182.59" y="202" class="m"><tspan fill="#5b6875">python</tspan></text>
  <circle cx="254.7" cy="197.5" r="4.5" fill="#5d7487"/>
  <text x="264.7" y="202" class="m"><tspan fill="#5b6875">agent · LLM</tspan></text>
  <circle cx="29" cy="219.5" r="4.5" fill="#b8524a"/>
  <text x="39" y="224" class="m"><tspan fill="#5b6875">gate · watchdog</tspan></text>
  <path d="M24 244H496" stroke="url(#rule)"/>
  <text x="24" y="274" class="kick"><tspan fill="#8794a1">1 · SOURCES</tspan></text>
  <path d="M34 549H486L494 565H26Z" fill="url(#lift)"/>
  <rect x="24" y="288" width="472" height="262" rx="14" fill="url(#glass)" stroke="url(#rim)" stroke-width="1.2"/>
  <rect class="sheen" x="25" y="289" width="470" height="64" rx="13" fill="url(#sheen)"/>
  <path d="M38 289.4H482" stroke="#ffffff" stroke-opacity=".95" stroke-linecap="round"/>
  <path d="M25.5 302V536" stroke="#3f82b5" stroke-width="4" stroke-linecap="round"/>
  <text x="44" y="320" class="h"><tspan fill="#151a21">8 information layers</tspan></text>
  <rect x="401.21" y="304" width="78.79" height="20" rx="10" fill="#e8f1f8" stroke="#3f82b5" stroke-opacity=".16"/>
  <text x="440.605" y="318" class="tag" text-anchor="middle"><tspan fill="#3f82b5">HK + US</tspan></text>
  <rect x="40" y="342" width="214" height="36" rx="9" fill="#f2f5f8" fill-opacity=".62" stroke="url(#rim)"/>
  <g class="hero-icon" data-icon="market" transform="translate(50 351) scale(0.75)" fill="none" stroke="#3f82b5" stroke-width="1.7" stroke-linecap="round" stroke-linejoin="round" aria-hidden="true"><path d="M3 9L12 3l9 6M4 21h16M6 10v8m6-8v8m6-8v8"/></g>
  <text x="76" y="365" class="m"><tspan fill="#151a21">L1 market</tspan></text>
  <rect x="266" y="342" width="214" height="36" rx="9" fill="#f2f5f8" fill-opacity=".62" stroke="url(#rim)"/>
  <g class="hero-icon" data-icon="filing" transform="translate(276 351) scale(0.75)" fill="none" stroke="#3f82b5" stroke-width="1.7" stroke-linecap="round" stroke-linejoin="round" aria-hidden="true"><path d="M6 3h8l4 4v14H6ZM14 3v5h4M9 12h6m-6 4h6"/></g>
  <text x="302" y="365" class="m"><tspan fill="#151a21">L2 SEC · HKEX</tspan></text>
  <rect x="40" y="394" width="214" height="36" rx="9" fill="#f2f5f8" fill-opacity=".62" stroke="url(#rim)"/>
  <g class="hero-icon" data-icon="bars" transform="translate(50 403) scale(0.75)" fill="none" stroke="#3f82b5" stroke-width="1.7" stroke-linecap="round" stroke-linejoin="round" aria-hidden="true"><path d="M3 21h18M6 17V9h3v8m3 0V4h3v13m3 0v-6h3v6"/></g>
  <text x="76" y="417" class="m"><tspan fill="#151a21">L3 capital flow</tspan></text>
  <rect x="266" y="394" width="214" height="36" rx="9" fill="#f2f5f8" fill-opacity=".62" stroke="url(#rim)"/>
  <g class="hero-icon" data-icon="news" transform="translate(276 403) scale(0.75)" fill="none" stroke="#3f82b5" stroke-width="1.7" stroke-linecap="round" stroke-linejoin="round" aria-hidden="true"><rect x="3" y="4" width="18" height="16" rx="2"/><path d="M7 8h10M7 12h4v4H7Zm7 0h3m-3 4h3"/></g>
  <text x="302" y="417" class="m"><tspan fill="#151a21">L4 news</tspan></text>
  <rect x="40" y="446" width="214" height="36" rx="9" fill="#f2f5f8" fill-opacity=".62" stroke="url(#rim)"/>
  <g class="hero-icon" data-icon="calendar" transform="translate(50 455) scale(0.75)" fill="none" stroke="#3f82b5" stroke-width="1.7" stroke-linecap="round" stroke-linejoin="round" aria-hidden="true"><rect x="3" y="5" width="18" height="16" rx="2"/><path d="M7 3v4m10-4v4M3 10h18M7 14h3m4 0h3m-10 4h3"/></g>
  <text x="76" y="469" class="m"><tspan fill="#151a21">L5 macro · mood</tspan></text>
  <rect x="266" y="446" width="214" height="36" rx="9" fill="#f2f5f8" fill-opacity=".62" stroke="url(#rim)"/>
  <g class="hero-icon" data-icon="shield" transform="translate(276 455) scale(0.75)" fill="none" stroke="#3f82b5" stroke-width="1.7" stroke-linecap="round" stroke-linejoin="round" aria-hidden="true"><path d="M12 2l8 4v6c0 5-5 8-8 10-3-2-8-5-8-10V6ZM8 12l3 3 5-6"/></g>
  <text x="302" y="469" class="m"><tspan fill="#151a21">L6 quant · risk</tspan></text>
  <rect x="40" y="498" width="214" height="36" rx="9" fill="#f2f5f8" fill-opacity=".62" stroke="url(#rim)"/>
  <g class="hero-icon" data-icon="fx" transform="translate(50 507) scale(0.75)" fill="none" stroke="#3f82b5" stroke-width="1.7" stroke-linecap="round" stroke-linejoin="round" aria-hidden="true"><path d="M4 8h15l-4-4M20 16H5l4 4M20 8v4M4 16v-4"/></g>
  <text x="76" y="521" class="m"><tspan fill="#151a21">L7 book · FX</tspan></text>
  <rect x="266" y="498" width="214" height="36" rx="9" fill="#f2f5f8" fill-opacity=".62" stroke="url(#rim)"/>
  <g class="hero-icon" data-icon="replay" transform="translate(276 507) scale(0.75)" fill="none" stroke="#3f82b5" stroke-width="1.7" stroke-linecap="round" stroke-linejoin="round" aria-hidden="true"><path d="M4 8a9 9 0 1 1-1 8M4 3v6h6"/><path d="M10 8l6 4-6 4Z"/></g>
  <text x="302" y="521" class="m"><tspan fill="#151a21">L8 backtest</tspan></text>
  <path id="w1" d="M260 550V592" fill="none" stroke="#a9b6c2" stroke-width="1.5" marker-end="url(#arr)"/>
  <circle class="pulse" r="7" fill="url(#glow-blue)"><animateMotion dur="2.2s" begin="0.00s" repeatCount="indefinite" keyPoints="0;1" keyTimes="0;1" calcMode="spline" keySplines=".45 0 .55 1"><mpath href="#w1" xlink:href="#w1"/></animateMotion></circle>
  <circle class="pulse" r="3.4" fill="#3f82b5"><animateMotion dur="2.2s" begin="0.00s" repeatCount="indefinite" keyPoints="0;1" keyTimes="0;1" calcMode="spline" keySplines=".45 0 .55 1"><mpath href="#w1" xlink:href="#w1"/></animateMotion></circle>
  <circle class="pulse" r="7" fill="url(#glow-blue)"><animateMotion dur="2.2s" begin="-1.10s" repeatCount="indefinite" keyPoints="0;1" keyTimes="0;1" calcMode="spline" keySplines=".45 0 .55 1"><mpath href="#w1" xlink:href="#w1"/></animateMotion></circle>
  <circle class="pulse" r="3.4" fill="#3f82b5"><animateMotion dur="2.2s" begin="-1.10s" repeatCount="indefinite" keyPoints="0;1" keyTimes="0;1" calcMode="spline" keySplines=".45 0 .55 1"><mpath href="#w1" xlink:href="#w1"/></animateMotion></circle>
  <path d="M34 905H486L494 921H26Z" fill="url(#lift)"/>
  <rect x="24" y="594" width="472" height="312" rx="14" fill="url(#glass)" stroke="url(#rim)" stroke-width="1.2"/>
  <rect class="sheen" x="25" y="595" width="470" height="64" rx="13" fill="url(#sheen)"/>
  <path d="M38 595.4H482" stroke="#ffffff" stroke-opacity=".95" stroke-linecap="round"/>
  <path d="M25.5 608V892" stroke="#3f82b5" stroke-width="4" stroke-linecap="round"/>
  <g class="hero-icon" data-icon="market" transform="translate(44 608) scale(0.916667)" fill="none" stroke="#3f82b5" stroke-width="1.7" stroke-linecap="round" stroke-linejoin="round" aria-hidden="true"><path d="M3 9L12 3l9 6M4 21h16M6 10v8m6-8v8m6-8v8"/></g>
  <text x="74" y="626" class="h"><tspan fill="#151a21">Fetch with fallback</tspan></text>
  <rect x="338.42" y="610" width="141.58" height="20" rx="10" fill="#e8f1f8" stroke="#3f82b5" stroke-opacity=".16"/>
  <text x="409.21" y="624" class="tag" text-anchor="middle"><tspan fill="#3f82b5">ORDERED ROUTES</tspan></text>
  <g class="hero-icon" data-icon="market" transform="translate(44 645) scale(0.75)" fill="none" stroke="#3f82b5" stroke-width="1.7" stroke-linecap="round" stroke-linejoin="round" aria-hidden="true"><path d="M3 9L12 3l9 6M4 21h16M6 10v8m6-8v8m6-8v8"/></g>
  <text x="72" y="660" class="m"><tspan fill="#5b6875">HK quotes</tspan></text>
  <text x="172" y="660" class="m"><tspan fill="#151a21">Tencent + Eastmoney HK</tspan></text>
  <text x="172" y="682" class="m"><tspan fill="#5b6875">→ stooq → yfinance</tspan></text>
  <g class="hero-icon" data-icon="market" transform="translate(44 701) scale(0.75)" fill="none" stroke="#3f82b5" stroke-width="1.7" stroke-linecap="round" stroke-linejoin="round" aria-hidden="true"><path d="M3 9L12 3l9 6M4 21h16M6 10v8m6-8v8m6-8v8"/></g>
  <text x="72" y="716" class="m"><tspan fill="#5b6875">US quotes</tspan></text>
  <text x="172" y="716" class="m"><tspan fill="#151a21">Nasdaq</tspan><tspan fill="#5b6875"> → Eastmoney → Finnhub</tspan></text>
  <text x="172" y="738" class="m"><tspan fill="#5b6875">→ Yahoo → yfinance</tspan></text>
  <text x="172" y="760" class="m"><tspan fill="#5b6875">→ Alpha Vantage → Polygon</tspan></text>
  <g class="hero-icon" data-icon="fx" transform="translate(44 779) scale(0.75)" fill="none" stroke="#3f82b5" stroke-width="1.7" stroke-linecap="round" stroke-linejoin="round" aria-hidden="true"><path d="M4 8h15l-4-4M20 16H5l4 4M20 8v4M4 16v-4"/></g>
  <text x="72" y="794" class="m"><tspan fill="#5b6875">USD/HKD</tspan></text>
  <text x="172" y="794" class="m"><tspan fill="#151a21">Frankfurter</tspan><tspan fill="#5b6875"> → exchangerate.host</tspan></text>
  <text x="172" y="816" class="m"><tspan fill="#5b6875">→ Yahoo</tspan></text>
  <path d="M44 844H480" stroke="#dde4eb"/>
  <text x="44" y="864" class="m"><tspan fill="#5b6875">One throttled gateway for every live Eastmoney</tspan></text>
  <text x="44" y="883" class="m"><tspan fill="#5b6875">call; an empty fetch keeps the prior value.</tspan></text>
  <path id="w2" d="M260 906V948" fill="none" stroke="#a9b6c2" stroke-width="1.5" marker-end="url(#arr)"/>
  <circle class="pulse" r="7" fill="url(#glow-blue)"><animateMotion dur="2.2s" begin="-0.40s" repeatCount="indefinite" keyPoints="0;1" keyTimes="0;1" calcMode="spline" keySplines=".45 0 .55 1"><mpath href="#w2" xlink:href="#w2"/></animateMotion></circle>
  <circle class="pulse" r="3.4" fill="#3f82b5"><animateMotion dur="2.2s" begin="-0.40s" repeatCount="indefinite" keyPoints="0;1" keyTimes="0;1" calcMode="spline" keySplines=".45 0 .55 1"><mpath href="#w2" xlink:href="#w2"/></animateMotion></circle>
  <circle class="pulse" r="7" fill="url(#glow-blue)"><animateMotion dur="2.2s" begin="-1.50s" repeatCount="indefinite" keyPoints="0;1" keyTimes="0;1" calcMode="spline" keySplines=".45 0 .55 1"><mpath href="#w2" xlink:href="#w2"/></animateMotion></circle>
  <circle class="pulse" r="3.4" fill="#3f82b5"><animateMotion dur="2.2s" begin="-1.50s" repeatCount="indefinite" keyPoints="0;1" keyTimes="0;1" calcMode="spline" keySplines=".45 0 .55 1"><mpath href="#w2" xlink:href="#w2"/></animateMotion></circle>
  <path d="M34 1099H486L494 1115H26Z" fill="url(#lift)"/>
  <rect x="24" y="950" width="472" height="150" rx="14" fill="url(#glass)" stroke="url(#rim)" stroke-width="1.2"/>
  <rect class="sheen" x="25" y="951" width="470" height="64" rx="13" fill="url(#sheen)"/>
  <path d="M38 951.4H482" stroke="#ffffff" stroke-opacity=".95" stroke-linecap="round"/>
  <path d="M25.5 964V1086" stroke="#13865f" stroke-width="4" stroke-linecap="round"/>
  <g class="hero-icon" data-icon="shield" transform="translate(44 964) scale(0.916667)" fill="none" stroke="#13865f" stroke-width="1.7" stroke-linecap="round" stroke-linejoin="round" aria-hidden="true"><path d="M12 2l8 4v6c0 5-5 8-8 10-3-2-8-5-8-10V6ZM8 12l3 3 5-6"/></g>
  <text x="74" y="982" class="h"><tspan fill="#151a21">Portfolio + risk</tspan></text>
  <rect x="410.18" y="966" width="69.82" height="20" rx="10" fill="#e6f4ee" stroke="#13865f" stroke-opacity=".16"/>
  <text x="445.09" y="980" class="tag" text-anchor="middle"><tspan fill="#13865f">PYTHON</tspan></text>
  <text x="44" y="1010" class="m"><tspan fill="#5b6875">reconcile</tspan></text>
  <text x="128" y="1010" class="m"><tspan fill="#151a21">recompute every money field</tspan></text>
  <text x="44" y="1031" class="m"><tspan fill="#5b6875">integrity</tspan></text>
  <text x="128" y="1031" class="m"><tspan fill="#151a21">data-health gate on the book</tspan></text>
  <text x="44" y="1052" class="m"><tspan fill="#5b6875">fx</tspan></text>
  <text x="128" y="1052" class="m"><tspan fill="#151a21">HK + US sum only through it</tspan></text>
  <text x="44" y="1073" class="m"><tspan fill="#5b6875">risk</tspan></text>
  <text x="128" y="1073" class="m"><tspan fill="#151a21">β · vol · drawdown → risk.json</tspan></text>
  <path id="w3" d="M260 1100V1106" fill="none" stroke="#a9b6c2" stroke-width="1.5"/>
  <circle class="pulse" r="7" fill="url(#glow-green)"><animateMotion dur="2.2s" begin="0.00s" repeatCount="indefinite" keyPoints="0;1" keyTimes="0;1" calcMode="spline" keySplines=".45 0 .55 1"><mpath href="#w3" xlink:href="#w3"/></animateMotion></circle>
  <circle class="pulse" r="3.4" fill="#13865f"><animateMotion dur="2.2s" begin="0.00s" repeatCount="indefinite" keyPoints="0;1" keyTimes="0;1" calcMode="spline" keySplines=".45 0 .55 1"><mpath href="#w3" xlink:href="#w3"/></animateMotion></circle>
  <text x="260" y="1132" class="m" text-anchor="middle"><tspan fill="#13865f">preflight</tspan><tspan fill="#5b6875"> · only the blocks this run can use</tspan></text>
  <path id="w4" d="M260 1154C260 1167 97.3333 1167 97.3333 1170" fill="none" stroke="#a9b6c2" stroke-width="1.5" marker-end="url(#arr)"/>
  <circle class="pulse" r="7" fill="url(#glow-blue)"><animateMotion dur="1.6s" begin="-0.00s" repeatCount="indefinite" keyPoints="0;1" keyTimes="0;1" calcMode="spline" keySplines=".45 0 .55 1"><mpath href="#w4" xlink:href="#w4"/></animateMotion></circle>
  <circle class="pulse" r="3.4" fill="#3f82b5"><animateMotion dur="1.6s" begin="-0.00s" repeatCount="indefinite" keyPoints="0;1" keyTimes="0;1" calcMode="spline" keySplines=".45 0 .55 1"><mpath href="#w4" xlink:href="#w4"/></animateMotion></circle>
  <path d="M34 1329H160.667L168.667 1345H26Z" fill="url(#lift)"/>
  <rect x="24" y="1180" width="146.667" height="150" rx="14" fill="url(#glass)" stroke="url(#rim)" stroke-width="1.2"/>
  <rect class="sheen" x="25" y="1181" width="144.667" height="64" rx="13" fill="url(#sheen)"/>
  <path d="M38 1181.4H156.667" stroke="#ffffff" stroke-opacity=".95" stroke-linecap="round"/>
  <path d="M25.5 1194V1316" stroke="#13865f" stroke-width="4" stroke-linecap="round"/>
  <text x="40" y="1210" class="h"><tspan fill="#151a21">Brief</tspan></text>
  <text x="40" y="1236" class="m"><tspan fill="#5b6875">pre-open</tspan></text>
  <text x="40" y="1256" class="m"><tspan fill="#5b6875">08:03 HKT</tspan></text>
  <text x="40" y="1276" class="m"><tspan fill="#5b6875">weekdays</tspan></text>
  <text x="40" y="1296" class="m"><tspan fill="#5b6875">→ plan.json</tspan></text>
  <path id="w5" d="M260 1154C260 1167 260 1167 260 1170" fill="none" stroke="#a9b6c2" stroke-width="1.5" marker-end="url(#arr)"/>
  <circle class="pulse" r="7" fill="url(#glow-blue)"><animateMotion dur="1.6s" begin="-0.50s" repeatCount="indefinite" keyPoints="0;1" keyTimes="0;1" calcMode="spline" keySplines=".45 0 .55 1"><mpath href="#w5" xlink:href="#w5"/></animateMotion></circle>
  <circle class="pulse" r="3.4" fill="#3f82b5"><animateMotion dur="1.6s" begin="-0.50s" repeatCount="indefinite" keyPoints="0;1" keyTimes="0;1" calcMode="spline" keySplines=".45 0 .55 1"><mpath href="#w5" xlink:href="#w5"/></animateMotion></circle>
  <path d="M196.667 1329H323.333L331.333 1345H188.667Z" fill="url(#lift)"/>
  <rect x="186.667" y="1180" width="146.667" height="150" rx="14" fill="url(#glass)" stroke="url(#rim)" stroke-width="1.2"/>
  <rect class="sheen" x="187.667" y="1181" width="144.667" height="64" rx="13" fill="url(#sheen)"/>
  <path d="M200.667 1181.4H319.333" stroke="#ffffff" stroke-opacity=".95" stroke-linecap="round"/>
  <path d="M188.167 1194V1316" stroke="#13865f" stroke-width="4" stroke-linecap="round"/>
  <text x="202.667" y="1210" class="h"><tspan fill="#151a21">Report</tspan></text>
  <text x="202.667" y="1236" class="m"><tspan fill="#5b6875">HK open, mid,</tspan></text>
  <text x="202.667" y="1256" class="m"><tspan fill="#5b6875">pm, close</tspan></text>
  <text x="202.667" y="1276" class="m"><tspan fill="#5b6875">US open, close</tspan></text>
  <text x="202.667" y="1296" class="m"><tspan fill="#5b6875">fresh quotes</tspan></text>
  <path id="w6" d="M260 1154C260 1167 422.667 1167 422.667 1170" fill="none" stroke="#a9b6c2" stroke-width="1.5" marker-end="url(#arr)"/>
  <circle class="pulse" r="7" fill="url(#glow-blue)"><animateMotion dur="1.6s" begin="-1.00s" repeatCount="indefinite" keyPoints="0;1" keyTimes="0;1" calcMode="spline" keySplines=".45 0 .55 1"><mpath href="#w6" xlink:href="#w6"/></animateMotion></circle>
  <circle class="pulse" r="3.4" fill="#3f82b5"><animateMotion dur="1.6s" begin="-1.00s" repeatCount="indefinite" keyPoints="0;1" keyTimes="0;1" calcMode="spline" keySplines=".45 0 .55 1"><mpath href="#w6" xlink:href="#w6"/></animateMotion></circle>
  <path d="M359.333 1329H486L494 1345H351.333Z" fill="url(#lift)"/>
  <rect x="349.333" y="1180" width="146.667" height="150" rx="14" fill="url(#glass)" stroke="url(#rim)" stroke-width="1.2"/>
  <rect class="sheen" x="350.333" y="1181" width="144.667" height="64" rx="13" fill="url(#sheen)"/>
  <path d="M363.333 1181.4H482" stroke="#ffffff" stroke-opacity=".95" stroke-linecap="round"/>
  <path d="M350.833 1194V1316" stroke="#13865f" stroke-width="4" stroke-linecap="round"/>
  <text x="365.333" y="1210" class="h"><tspan fill="#151a21">Intraday</tspan></text>
  <text x="365.333" y="1236" class="m"><tspan fill="#5b6875">every 30 min</tspan></text>
  <text x="365.333" y="1256" class="m"><tspan fill="#5b6875">while a market</tspan></text>
  <text x="365.333" y="1276" class="m"><tspan fill="#5b6875">is open</tspan></text>
  <text x="365.333" y="1296" class="m"><tspan fill="#5b6875">judgment packet</tspan></text>
  <path id="w7" d="M97.3333 1330C97.3333 1355 260 1355 260 1370" fill="none" stroke="#a9b6c2" stroke-width="1.5" marker-end="url(#arr)"/>
  <circle class="pulse" r="7" fill="url(#glow-slate)"><animateMotion dur="1.8s" begin="-0.30s" repeatCount="indefinite" keyPoints="0;1" keyTimes="0;1" calcMode="spline" keySplines=".45 0 .55 1"><mpath href="#w7" xlink:href="#w7"/></animateMotion></circle>
  <circle class="pulse" r="3.4" fill="#5d7487"><animateMotion dur="1.8s" begin="-0.30s" repeatCount="indefinite" keyPoints="0;1" keyTimes="0;1" calcMode="spline" keySplines=".45 0 .55 1"><mpath href="#w7" xlink:href="#w7"/></animateMotion></circle>
  <path id="w8" d="M260 1330C260 1355 260 1355 260 1370" fill="none" stroke="#a9b6c2" stroke-width="1.5" marker-end="url(#arr)"/>
  <circle class="pulse" r="7" fill="url(#glow-slate)"><animateMotion dur="1.8s" begin="-0.80s" repeatCount="indefinite" keyPoints="0;1" keyTimes="0;1" calcMode="spline" keySplines=".45 0 .55 1"><mpath href="#w8" xlink:href="#w8"/></animateMotion></circle>
  <circle class="pulse" r="3.4" fill="#5d7487"><animateMotion dur="1.8s" begin="-0.80s" repeatCount="indefinite" keyPoints="0;1" keyTimes="0;1" calcMode="spline" keySplines=".45 0 .55 1"><mpath href="#w8" xlink:href="#w8"/></animateMotion></circle>
  <path id="w9" d="M422.667 1330C422.667 1355 260 1355 260 1370" fill="none" stroke="#a9b6c2" stroke-width="1.5" marker-end="url(#arr)"/>
  <circle class="pulse" r="7" fill="url(#glow-slate)"><animateMotion dur="1.8s" begin="-1.30s" repeatCount="indefinite" keyPoints="0;1" keyTimes="0;1" calcMode="spline" keySplines=".45 0 .55 1"><mpath href="#w9" xlink:href="#w9"/></animateMotion></circle>
  <circle class="pulse" r="3.4" fill="#5d7487"><animateMotion dur="1.8s" begin="-1.30s" repeatCount="indefinite" keyPoints="0;1" keyTimes="0;1" calcMode="spline" keySplines=".45 0 .55 1"><mpath href="#w9" xlink:href="#w9"/></animateMotion></circle>
  <path d="M34 1475H486L494 1491H26Z" fill="url(#lift)"/>
  <rect x="24" y="1380" width="472" height="96" rx="14" fill="url(#glass)" stroke="url(#rim)" stroke-width="1.2"/>
  <rect class="sheen" x="25" y="1381" width="470" height="64" rx="13" fill="url(#sheen)"/>
  <path d="M38 1381.4H482" stroke="#ffffff" stroke-opacity=".95" stroke-linecap="round"/>
  <path d="M25.5 1394V1462" stroke="#5d7487" stroke-width="4" stroke-linecap="round"/>
  <g class="hero-icon" data-icon="debate" transform="translate(44 1394) scale(0.916667)" fill="none" stroke="#5d7487" stroke-width="1.7" stroke-linecap="round" stroke-linejoin="round" aria-hidden="true"><path d="M2 4h12v9H8l-4 3v-3H2ZM17 8h5v11h-2v3l-4-3h-5v-3"/></g>
  <text x="74" y="1412" class="h"><tspan fill="#151a21">Agent</tspan></text>
  <rect x="437.09" y="1396" width="42.91" height="20" rx="10" fill="#eaeef2" stroke="#5d7487" stroke-opacity=".16"/>
  <text x="458.545" y="1410" class="tag" text-anchor="middle"><tspan fill="#5d7487">LLM</tspan></text>
  <text x="44" y="1438" class="b"><tspan fill="#151a21">Reads the context files, never fetches;</tspan></text>
  <text x="44" y="1459" class="b"><tspan fill="#151a21">the brief also writes plan.json.</tspan></text>
  <path id="w10" d="M260 1476V1514" fill="none" stroke="#a9b6c2" stroke-width="1.5" marker-end="url(#arr)"/>
  <circle class="pulse" r="7" fill="url(#glow-green)"><animateMotion dur="2.2s" begin="0.00s" repeatCount="indefinite" keyPoints="0;1" keyTimes="0;1" calcMode="spline" keySplines=".45 0 .55 1"><mpath href="#w10" xlink:href="#w10"/></animateMotion></circle>
  <circle class="pulse" r="3.4" fill="#13865f"><animateMotion dur="2.2s" begin="0.00s" repeatCount="indefinite" keyPoints="0;1" keyTimes="0;1" calcMode="spline" keySplines=".45 0 .55 1"><mpath href="#w10" xlink:href="#w10"/></animateMotion></circle>
  <circle class="pulse" r="7" fill="url(#glow-green)"><animateMotion dur="2.2s" begin="-1.10s" repeatCount="indefinite" keyPoints="0;1" keyTimes="0;1" calcMode="spline" keySplines=".45 0 .55 1"><mpath href="#w10" xlink:href="#w10"/></animateMotion></circle>
  <circle class="pulse" r="3.4" fill="#13865f"><animateMotion dur="2.2s" begin="-1.10s" repeatCount="indefinite" keyPoints="0;1" keyTimes="0;1" calcMode="spline" keySplines=".45 0 .55 1"><mpath href="#w10" xlink:href="#w10"/></animateMotion></circle>
  <path d="M34 1611H486L494 1627H26Z" fill="url(#lift)"/>
  <rect x="24" y="1516" width="472" height="96" rx="14" fill="url(#glass)" stroke="url(#rim)" stroke-width="1.2"/>
  <rect class="sheen" x="25" y="1517" width="470" height="64" rx="13" fill="url(#sheen)"/>
  <path d="M38 1517.4H482" stroke="#ffffff" stroke-opacity=".95" stroke-linecap="round"/>
  <path d="M25.5 1530V1598" stroke="#13865f" stroke-width="4" stroke-linecap="round"/>
  <g class="hero-icon" data-icon="checks" transform="translate(44 1530) scale(0.916667)" fill="none" stroke="#13865f" stroke-width="1.7" stroke-linecap="round" stroke-linejoin="round" aria-hidden="true"><rect x="3" y="3" width="18" height="18" rx="3"/><path d="M7 8l2 2 3-4m2 3h3M7 16l2 2 3-4m2 3h3"/></g>
  <text x="74" y="1548" class="h"><tspan fill="#151a21">Postflight</tspan></text>
  <rect x="410.18" y="1532" width="69.82" height="20" rx="10" fill="#e6f4ee" stroke="#13865f" stroke-opacity=".16"/>
  <text x="445.09" y="1546" class="tag" text-anchor="middle"><tspan fill="#13865f">PYTHON</tspan></text>
  <text x="44" y="1574" class="b"><tspan fill="#151a21">Validates the output, then publishes;</tspan></text>
  <text x="44" y="1595" class="b"><tspan fill="#151a21">sends WeChat and co-sends Telegram.</tspan></text>
  <path id="w11" d="M260 1612C260 1637 97.3333 1637 97.3333 1652" fill="none" stroke="#a9b6c2" stroke-width="1.5" marker-end="url(#arr)"/>
  <circle class="pulse" r="7" fill="url(#glow-blue)"><animateMotion dur="1.8s" begin="-0.00s" repeatCount="indefinite" keyPoints="0;1" keyTimes="0;1" calcMode="spline" keySplines=".45 0 .55 1"><mpath href="#w11" xlink:href="#w11"/></animateMotion></circle>
  <circle class="pulse" r="3.4" fill="#3f82b5"><animateMotion dur="1.8s" begin="-0.00s" repeatCount="indefinite" keyPoints="0;1" keyTimes="0;1" calcMode="spline" keySplines=".45 0 .55 1"><mpath href="#w11" xlink:href="#w11"/></animateMotion></circle>
  <path d="M34 1793H160.667L168.667 1809H26Z" fill="url(#lift)"/>
  <rect x="24" y="1662" width="146.667" height="132" rx="14" fill="url(#glass)" stroke="url(#rim)" stroke-width="1.2"/>
  <rect class="sheen" x="25" y="1663" width="144.667" height="64" rx="13" fill="url(#sheen)"/>
  <path d="M38 1663.4H156.667" stroke="#ffffff" stroke-opacity=".95" stroke-linecap="round"/>
  <path d="M25.5 1676V1780" stroke="#3f82b5" stroke-width="4" stroke-linecap="round"/>
  <text x="40" y="1692" class="h"><tspan fill="#151a21">Deliver</tspan></text>
  <text x="40" y="1718" class="m"><tspan fill="#5b6875">WeChat +</tspan></text>
  <text x="40" y="1738" class="m"><tspan fill="#5b6875">Telegram</tspan></text>
  <g class="hero-icon" data-icon="plane" transform="translate(40 1758) scale(0.916667)" fill="none" stroke="#3f82b5" stroke-width="1.7" stroke-linecap="round" stroke-linejoin="round" aria-hidden="true"><path d="M2 11L22 3l-7 19-4-8ZM11 14L22 3"/></g>
  <path id="w12" d="M260 1612C260 1637 260 1637 260 1652" fill="none" stroke="#a9b6c2" stroke-width="1.5" marker-end="url(#arr)"/>
  <circle class="pulse" r="7" fill="url(#glow-blue)"><animateMotion dur="1.8s" begin="-0.50s" repeatCount="indefinite" keyPoints="0;1" keyTimes="0;1" calcMode="spline" keySplines=".45 0 .55 1"><mpath href="#w12" xlink:href="#w12"/></animateMotion></circle>
  <circle class="pulse" r="3.4" fill="#3f82b5"><animateMotion dur="1.8s" begin="-0.50s" repeatCount="indefinite" keyPoints="0;1" keyTimes="0;1" calcMode="spline" keySplines=".45 0 .55 1"><mpath href="#w12" xlink:href="#w12"/></animateMotion></circle>
  <path d="M196.667 1793H323.333L331.333 1809H188.667Z" fill="url(#lift)"/>
  <rect x="186.667" y="1662" width="146.667" height="132" rx="14" fill="url(#glass)" stroke="url(#rim)" stroke-width="1.2"/>
  <rect class="sheen" x="187.667" y="1663" width="144.667" height="64" rx="13" fill="url(#sheen)"/>
  <path d="M200.667 1663.4H319.333" stroke="#ffffff" stroke-opacity=".95" stroke-linecap="round"/>
  <path d="M188.167 1676V1780" stroke="#3f82b5" stroke-width="4" stroke-linecap="round"/>
  <text x="202.667" y="1692" class="h"><tspan fill="#151a21">data-plane</tspan></text>
  <text x="202.667" y="1718" class="m"><tspan fill="#5b6875">7 files, one</tspan></text>
  <text x="202.667" y="1738" class="m"><tspan fill="#5b6875">generation</tspan></text>
  <g class="hero-icon" data-icon="publish" transform="translate(202.667 1758) scale(0.916667)" fill="none" stroke="#3f82b5" stroke-width="1.7" stroke-linecap="round" stroke-linejoin="round" aria-hidden="true"><path d="M12 15V3M7 8l5-5 5 5M4 14v7h16v-7"/></g>
  <path id="w13" d="M260 1612C260 1637 422.667 1637 422.667 1652" fill="none" stroke="#a9b6c2" stroke-width="1.5" marker-end="url(#arr)"/>
  <circle class="pulse" r="7" fill="url(#glow-blue)"><animateMotion dur="1.8s" begin="-1.00s" repeatCount="indefinite" keyPoints="0;1" keyTimes="0;1" calcMode="spline" keySplines=".45 0 .55 1"><mpath href="#w13" xlink:href="#w13"/></animateMotion></circle>
  <circle class="pulse" r="3.4" fill="#3f82b5"><animateMotion dur="1.8s" begin="-1.00s" repeatCount="indefinite" keyPoints="0;1" keyTimes="0;1" calcMode="spline" keySplines=".45 0 .55 1"><mpath href="#w13" xlink:href="#w13"/></animateMotion></circle>
  <path d="M359.333 1793H486L494 1809H351.333Z" fill="url(#lift)"/>
  <rect x="349.333" y="1662" width="146.667" height="132" rx="14" fill="url(#glass)" stroke="url(#rim)" stroke-width="1.2"/>
  <rect class="sheen" x="350.333" y="1663" width="144.667" height="64" rx="13" fill="url(#sheen)"/>
  <path d="M363.333 1663.4H482" stroke="#ffffff" stroke-opacity=".95" stroke-linecap="round"/>
  <path d="M350.833 1676V1780" stroke="#3f82b5" stroke-width="4" stroke-linecap="round"/>
  <text x="365.333" y="1692" class="h"><tspan fill="#151a21">master</tspan></text>
  <text x="365.333" y="1718" class="m"><tspan fill="#5b6875">ledger +</tspan></text>
  <text x="365.333" y="1738" class="m"><tspan fill="#5b6875">pre-push gate</tspan></text>
  <g class="hero-icon" data-icon="commit" transform="translate(365.333 1758) scale(0.916667)" fill="none" stroke="#3f82b5" stroke-width="1.7" stroke-linecap="round" stroke-linejoin="round" aria-hidden="true"><circle cx="12" cy="12" r="5"/><path d="M2 12h5m10 0h5"/></g>
  <text x="186.667" y="1818" class="m"><tspan fill="#8794a1">WeChat cannot confirm a send;</tspan></text>
  <text x="186.667" y="1837" class="m"><tspan fill="#8794a1">Telegram can. The dashboard polls</tspan></text>
  <text x="186.667" y="1856" class="m"><tspan fill="#8794a1">data-plane every 60 s; master</tspan></text>
  <text x="186.667" y="1875" class="m"><tspan fill="#8794a1">takes only a reconciled book.</tspan></text>
  <path id="w14" d="M97.3333 1918V1798" fill="none" stroke="#d9a8a3" stroke-width="1.5" stroke-dasharray="3 5" marker-end="url(#arr)"/>
  <circle class="pulse" r="7" fill="url(#glow-warm)"><animateMotion dur="2.4s" begin="0.00s" repeatCount="indefinite" keyPoints="0;1" keyTimes="0;1" calcMode="spline" keySplines=".45 0 .55 1"><mpath href="#w14" xlink:href="#w14"/></animateMotion></circle>
  <circle class="pulse" r="3.4" fill="#b8524a"><animateMotion dur="2.4s" begin="0.00s" repeatCount="indefinite" keyPoints="0;1" keyTimes="0;1" calcMode="spline" keySplines=".45 0 .55 1"><mpath href="#w14" xlink:href="#w14"/></animateMotion></circle>
  <circle class="pulse" r="7" fill="url(#glow-warm)"><animateMotion dur="2.4s" begin="-1.20s" repeatCount="indefinite" keyPoints="0;1" keyTimes="0;1" calcMode="spline" keySplines=".45 0 .55 1"><mpath href="#w14" xlink:href="#w14"/></animateMotion></circle>
  <circle class="pulse" r="3.4" fill="#b8524a"><animateMotion dur="2.4s" begin="-1.20s" repeatCount="indefinite" keyPoints="0;1" keyTimes="0;1" calcMode="spline" keySplines=".45 0 .55 1"><mpath href="#w14" xlink:href="#w14"/></animateMotion></circle>
  <path d="M34 2055H486L494 2071H26Z" fill="url(#lift)"/>
  <rect x="24" y="1920" width="472" height="136" rx="14" fill="url(#glass)" stroke="url(#rim)" stroke-width="1.2"/>
  <rect class="sheen" x="25" y="1921" width="470" height="64" rx="13" fill="url(#sheen)"/>
  <path d="M38 1921.4H482" stroke="#ffffff" stroke-opacity=".95" stroke-linecap="round"/>
  <path d="M25.5 1934V2042" stroke="#b8524a" stroke-width="4" stroke-linecap="round"/>
  <g class="hero-icon" data-icon="clock" transform="translate(44 1934) scale(0.916667)" fill="none" stroke="#b8524a" stroke-width="1.7" stroke-linecap="round" stroke-linejoin="round" aria-hidden="true"><circle cx="12" cy="12" r="9"/><path d="M12 6v6l4 2"/></g>
  <text x="74" y="1952" class="h"><tspan fill="#151a21">Watchdog</tspan></text>
  <rect x="320.48" y="1936" width="159.52" height="20" rx="10" fill="#fbecea" stroke="#b8524a" stroke-opacity=".16"/>
  <text x="400.24" y="1950" class="tag" text-anchor="middle"><tspan fill="#b8524a">CRONTAB · NO LLM</tspan></text>
  <text x="44" y="1980" class="m"><tspan fill="#5b6875">brief</tspan></text>
  <text x="128" y="1980" class="m"><tspan fill="#151a21">08:36</tspan><tspan fill="#5b6875"> · miss check 09:05</tspan></text>
  <text x="44" y="2001" class="m"><tspan fill="#5b6875">report</tspan></text>
  <text x="128" y="2001" class="m"><tspan fill="#151a21">10–20 min after its slot</tspan></text>
  <text x="44" y="2022" class="m"><tspan fill="#5b6875">intraday</tspan></text>
  <text x="128" y="2022" class="m"><tspan fill="#151a21">:13 and :43</tspan></text>
  <text x="44" y="2045" class="m"><tspan fill="#b8524a">Unconfirmed send → mirror to Telegram</tspan></text>
</svg>
